<?xml version="1.0" encoding="UTF-8"?>
<svg id="svg_arduino" width="283.91" height="202.3" version="1.2" viewBox="0 0 212.93 151.73" xmlns="http://www.w3.org/2000/svg"><g id="Arduino_Uno_R3"><path id="placa_ci" d="m201.15 0.195 4.32 4.32v32.4l7.199 7.2v92.879l-7.199 7.2v4.36a2.838 2.838 0 0 1-2.834 2.838h-181.53a2.836 2.836 0 0 1-2.834-2.834v-145.53a2.834 2.834 0 0 1 2.834-2.834h180.05m-0.217 50.4a4.536 4.536 0 1 0 9.072 0.015v-0.016a4.536 4.536 0 0 0-9.072-0.016v0.017m0 79.2a4.536 4.536 0 0 0 9.072 0.016v-0.016a4.536 4.536 0 0 0-9.072-0.016v0.016m-144-122.4a4.536 4.536 0 0 0 9.071 0.016v-0.016a4.536 4.536 0 0 0-9.071-0.013v0.013m-3.6 136.8a4.536 4.536 0 0 0 9.071 0.013v-0.013a4.536 4.536 0 0 0-9.071-0.018v0.018m107.73 0a1.205 1.205 0 0 0 2.409 4e-3v-4e-3a1.206 1.206 0 1 0-2.409-6e-3v6e-3m7.2 0a1.205 1.205 0 0 0 2.408 4e-3v-4e-3a1.204 1.204 0 1 0-2.408-6e-3v6e-3m7.2 0a1.205 1.205 0 1 0 2.41 4e-3v-4e-3a1.206 1.206 0 1 0-2.41-6e-3v6e-3m7.201 0a1.205 1.205 0 1 0 2.408 4e-3v-4e-3a1.204 1.204 0 1 0-2.408-6e-3v6e-3m7.199 0a1.205 1.205 0 0 0 2.41 4e-3v-4e-3a1.207 1.207 0 0 0-1.203-1.21c-0.665 0-1.205 0.538-1.207 1.204v6e-3m7.2 0a1.205 1.205 0 0 0 2.409 4e-3v-4e-3a1.206 1.206 0 1 0-2.409-6e-3v6e-3m0.219-79.2a1.349 1.349 0 0 0 2.697 5e-3v-4e-3a1.3485 1.3485 0 0 0-2.697-4e-3v3e-3m7.2 0a1.347 1.347 0 0 0 2.694 5e-3v-4e-3a1.347 1.347 0 0 0-2.694-4e-3v3e-3m-7.2 7.2a1.3485 1.3485 0 0 0 2.697 4e-3v-4e-3a1.35 1.35 0 0 0-2.697-4e-3v4e-3m7.2 0a1.348 1.348 0 0 0 2.694 4e-3v-4e-3a1.348 1.348 0 0 0-2.694-4e-3v4e-3m-7.2 7.2a1.3485 1.3485 0 0 0 2.697 4e-3v-4e-3a1.349 1.349 0 0 0-2.697-4e-3v4e-3m7.2 0a1.349 1.349 0 0 0 1.344 1.35 1.35 1.35 0 0 0 1.35-1.346v-4e-3a1.348 1.348 0 0 0-2.694-4e-3v4e-3m-128.52-62.64a1.347 1.347 0 0 0 2.693 4e-3v-4e-3a1.347 1.347 0 1 0-2.693-4e-3v4e-3m0 7.2a1.3465 1.3465 0 0 0 2.693 4e-3v-4e-3a1.347 1.347 0 0 0-2.693-5e-3v5e-3m-7.201-7.2a1.347 1.347 0 0 0 2.693 4e-3v-4e-3a1.347 1.347 0 1 0-2.693-4e-3v4e-3m0 7.2a1.3465 1.3465 0 0 0 2.693 4e-3v-4e-3a1.347 1.347 0 0 0-2.693-5e-3v5e-3m-7.2-7.2a1.346 1.346 0 1 0 2.692 0 1.346 1.346 0 0 0-2.692 0m0 7.2a1.347 1.347 0 1 0 2.693-2e-3 1.347 1.347 0 0 0-2.693 2e-3m73.582-16.56a1.2045 1.2045 0 1 0 2.409 5e-3v-5e-3a1.205 1.205 0 0 0-2.409-6e-3v6e-3m-7.2 0a1.205 1.205 0 1 0 2.41 5e-3v-5e-3a1.205 1.205 0 0 0-2.41-8e-3v8e-3m-7.199 0a1.204 1.204 0 0 0 2.408 7e-3v-8e-3a1.204 1.204 0 1 0-2.408-8e-3v9e-3m-7.201 0a1.205 1.205 0 1 0 2.41 7e-3v-8e-3a1.205 1.205 0 1 0-2.41-8e-3v9e-3m-7.2 0a1.2055 1.2055 0 1 0 2.411 7e-3v-8e-3a1.206 1.206 0 0 0-2.409-8e-3c-2e-3 4e-3 -2e-3 6e-3 -2e-3 9e-3m-7.2 0a1.2045 1.2045 0 1 0 2.409 7e-3v-8e-3a1.2045 1.2045 0 1 0-2.409-8e-3v9e-3m-7.201 0a1.205 1.205 0 1 0 2.41 7e-3v-8e-3a1.205 1.205 0 0 0-2.41-8e-3v9e-3m-7.199 0a1.2045 1.2045 0 1 0 2.409 7e-3v-8e-3a1.2045 1.2045 0 1 0-2.409-8e-3v9e-3m-7.2 0a1.205 1.205 0 1 0 2.41 7e-3v-8e-3a1.205 1.205 0 0 0-2.409-8e-3l-1e-3 9e-3m-7.2 0a1.205 1.205 0 1 0 2.41 7e-3v-8e-3a1.205 1.205 0 0 0-2.41-8e-3v9e-3m126.72 0a1.2045 1.2045 0 1 0 2.409 5e-3v-5e-3a1.205 1.205 0 1 0-2.409-6e-3v6e-3m-7.2 0a1.205 1.205 0 1 0 2.41 5e-3v-5e-3a1.206 1.206 0 0 0-2.41-6e-3v6e-3m-7.199 0a1.204 1.204 0 1 0 2.408 5e-3v-5e-3a1.204 1.204 0 1 0-2.408-6e-3v6e-3m-7.201 0a1.206 1.206 0 0 0 2.41 5e-3v-5e-3a1.205 1.205 0 1 0-2.41-6e-3v6e-3m-7.2 0a1.204 1.204 0 1 0 2.408 5e-3v-5e-3a1.204 1.204 0 1 0-2.408-6e-3v6e-3m-7.2 0a1.2045 1.2045 0 1 0 2.409 5e-3v-5e-3a1.205 1.205 0 1 0-2.409-6e-3v6e-3m-7.2 0a1.205 1.205 0 1 0 2.41 5e-3v-5e-3a1.206 1.206 0 0 0-2.41-6e-3v6e-3m-7.199 0a1.204 1.204 0 1 0 2.408 5e-3v-5e-3a1.204 1.204 0 1 0-2.408-6e-3v6e-3m-43.201 136.8a1.2045 1.2045 0 0 0 2.409 8e-3v-8e-3a1.2045 1.2045 0 1 0-2.409-8e-3v8e-3m-7.199 0a1.2045 1.2045 0 0 0 2.409 8e-3v-8e-3a1.2045 1.2045 0 1 0-2.409-8e-3v8e-3m14.4 0a1.204 1.204 0 0 0 2.408 8e-3v-8e-3a1.204 1.204 0 1 0-2.408-8e-3v8e-3m7.199 0a1.205 1.205 0 0 0 2.41 8e-3v-8e-3a1.205 1.205 0 0 0-2.41-8e-3v8e-3m7.2 0a1.202 1.202 0 0 0 1.2 1.207 1.203 1.203 0 0 0 1.209-1.2v-7e-3a1.2045 1.2045 0 1 0-2.409-8e-3v8e-3m7.2 0a1.205 1.205 0 0 0 2.408 4e-3v-4e-3a1.204 1.204 0 1 0-2.408-6e-3v6e-3m7.2 0a1.205 1.205 0 1 0 2.41 4e-3v-4e-3a1.206 1.206 0 1 0-2.41-6e-3v6e-3m7.201 0a1.205 1.205 0 1 0 2.408 4e-3v-4e-3a1.204 1.204 0 1 0-2.408-6e-3v6e-3" fill="#0f7391" stroke="#00af00" stroke-width=".671"/><g id="breadboard"><g id="icon"><path id="lines" d="m114.98 126.44h35.913m8.983 0h39.636m-106.91-97.046h106.91" fill="#0f0" stroke="#fff" stroke-linecap="round" stroke-width="1.23"/><path id="symbols" d="m179.7 26.35c-0.021-0.549 0.273-0.829 0.653-0.829 0.229 0 0.405 0.071 0.774 0.247 0.276 0.132 0.479 0.23 0.687 0.23 0.198 0 0.291-0.159 0.297-0.461h0.329c0.027 0.615-0.291 0.829-0.631 0.829-0.221 0-0.418-0.066-0.797-0.242-0.258-0.126-0.461-0.242-0.659-0.242s-0.318 0.138-0.329 0.467l-0.324 1e-3m-50.66-8.035c-0.5 0.02-0.756-0.25-0.756-0.596 0-0.21 0.064-0.37 0.225-0.706 0.121-0.254 0.21-0.439 0.21-0.624 0-0.181-0.146-0.266-0.42-0.271v-0.3c0.561-0.025 0.756 0.265 0.756 0.576 0 0.2-0.063 0.38-0.221 0.726-0.115 0.235-0.223 0.42-0.223 0.601s0.125 0.29 0.429 0.3v0.294m26.281 0c-0.502 0.02-0.756-0.25-0.756-0.596 0-0.21 0.064-0.37 0.225-0.706 0.121-0.254 0.211-0.439 0.211-0.624 0-0.181-0.146-0.266-0.422-0.271v-0.3c0.561-0.025 0.756 0.265 0.756 0.576 0 0.2-0.059 0.38-0.219 0.726-0.115 0.234-0.221 0.42-0.221 0.6s0.125 0.29 0.426 0.3v0.295m21.239 0c-0.501 0.02-0.757-0.25-0.757-0.596 0-0.21 0.063-0.37 0.226-0.706 0.121-0.254 0.211-0.439 0.211-0.624 0-0.181-0.146-0.266-0.421-0.271v-0.3c0.561-0.025 0.756 0.265 0.756 0.576 0 0.2-0.061 0.38-0.22 0.726-0.115 0.235-0.222 0.42-0.222 0.601s0.125 0.29 0.427 0.3v0.294m-14.399 0c-0.502 0.02-0.756-0.25-0.756-0.596 0-0.21 0.064-0.37 0.225-0.706 0.121-0.254 0.211-0.439 0.211-0.624 0-0.181-0.146-0.266-0.422-0.271v-0.3c0.562-0.025 0.756 0.265 0.756 0.576 0 0.2-0.059 0.38-0.219 0.726-0.115 0.234-0.221 0.42-0.221 0.6s0.125 0.29 0.426 0.3v0.295m-47.383 3.029c-0.5 0.021-0.756-0.25-0.756-0.596 0-0.21 0.064-0.37 0.225-0.706 0.121-0.255 0.211-0.44 0.211-0.625 0-0.181-0.145-0.266-0.42-0.271v-0.3c0.561-0.025 0.756 0.265 0.756 0.576 0 0.2-0.061 0.38-0.221 0.726-0.115 0.235-0.221 0.42-0.221 0.601s0.125 0.29 0.426 0.3v0.295m7.422 0c-0.5 0.021-0.756-0.25-0.756-0.596 0-0.21 0.064-0.37 0.225-0.706 0.121-0.255 0.211-0.44 0.211-0.625 0-0.181-0.145-0.266-0.42-0.271v-0.3c0.561-0.025 0.756 0.265 0.756 0.576 0 0.2-0.061 0.38-0.221 0.726-0.115 0.235-0.221 0.42-0.221 0.601s0.125 0.29 0.426 0.3v0.295m69.709-3.108h-1.959a0.337 0.337 0 0 1-0.279-0.526l0.978-1.459c0.125-0.188 0.438-0.188 0.563 0l0.93 1.394a0.35 0.35 0 0 1 0.113 0.253 0.35 0.35 0 0 1-0.346 0.338m5.299-2.127h1.955c0.125 0 0.238 0.068 0.301 0.178a0.323 0.323 0 0 1-0.02 0.348l-0.973 1.459c-0.125 0.188-0.438 0.188-0.563 0l-0.93-1.396a0.335 0.335 0 0 1-0.113-0.252 0.345 0.345 0 0 1 0.343-0.337" fill="#fff"/><path id="txt_logo" d="m171.71 35.36a3.67 3.67 0 0 1 1.594 0.346c0.488 0.231 0.906 0.555 1.256 0.975 0.354 0.42 0.623 0.926 0.818 1.517 0.196 0.59 0.295 1.247 0.295 1.968 0 0.72-0.099 1.376-0.295 1.966-0.195 0.592-0.468 1.099-0.818 1.521s-0.77 0.749-1.256 0.979a3.671 3.671 0 0 1-1.594 0.345c-0.58 0-1.113-0.115-1.602-0.345-0.484-0.231-0.904-0.557-1.258-0.979s-0.629-0.93-0.823-1.521a6.266 6.266 0 0 1-0.294-1.966c0-0.721 0.1-1.377 0.294-1.968s0.47-1.097 0.823-1.517 0.773-0.745 1.258-0.975a3.704 3.704 0 0 1 1.602-0.346m-6e-3 8.561c0.41 0 0.789-0.085 1.135-0.256s0.646-0.418 0.896-0.74a3.62 3.62 0 0 0 0.588-1.179c0.141-0.464 0.211-0.991 0.211-1.581a5.44 5.44 0 0 0-0.211-1.582 3.635 3.635 0 0 0-0.585-1.179 2.507 2.507 0 0 0-0.888-0.736 2.549 2.549 0 0 0-1.125-0.252 2.542 2.542 0 0 0-2.045 0.984c-0.254 0.32-0.451 0.713-0.596 1.178a5.375 5.375 0 0 0-0.216 1.586c0 0.59 0.07 1.117 0.214 1.581a3.6 3.6 0 0 0 0.588 1.179c0.25 0.322 0.551 0.569 0.896 0.74 0.346 0.171 0.726 0.257 1.138 0.257m-5.654 0.698h-0.944l-4.742-7.433v7.446h-0.797v-9.054h0.88l4.659 7.455v-7.455h0.944v9.041m-12.086 0.171c-0.994 0-1.742-0.206-2.244-0.618-0.485-0.401-0.799-0.879-0.936-1.434-0.07-0.28-0.119-0.58-0.15-0.899a12.114 12.114 0 0 1-0.045-1.025v-5.236h0.939v5.22c0 1.183 0.189 2.117 0.572 2.498 0.377 0.375 0.932 0.563 1.664 0.563 0.738 0 1.494-0.188 1.871-0.563 0.381-0.38 0.572-1.314 0.572-2.498v-5.22h0.959v5.236c0 1.088-0.125 1.896-0.377 2.424-0.499 1.035-1.32 1.552-2.825 1.552m0.37 2.893a0.568 0.568 0 1 1-1.136 0 0.568 0.568 0 0 1 1.136 0m1.416 0a0.568 0.568 0 1 1-1.136 0 0.568 0.568 0 0 1 1.136 0m1.418 0a0.568 0.568 0 1 1-1.136 0 0.568 0.568 0 0 1 1.136 0m1.416 0a0.568 0.568 0 1 1-1.136 0 0.568 0.568 0 0 1 1.136 0m1.418 0a0.568 0.568 0 1 1-1.136 0 0.568 0.568 0 0 1 1.136 0m1.416 0a0.568 0.568 0 1 1-1.136 0 0.568 0.568 0 0 1 1.136 0m1.418 0a0.568 0.568 0 1 1-1.136 0 0.568 0.568 0 0 1 1.136 0m1.417 0a0.568 0.568 0 1 1-1.136 0 0.568 0.568 0 0 1 1.136 0m1.417 0a0.568 0.568 0 1 1-1.136 0 0.568 0.568 0 0 1 1.136 0m1.417 0a0.568 0.568 0 1 1-1.136 0 0.568 0.568 0 0 1 1.136 0m1.417 0a0.568 0.568 0 1 1-1.136 0 0.568 0.568 0 0 1 1.136 0m1.417 0a0.568 0.568 0 1 1-1.136 0 0.568 0.568 0 0 1 1.136 0m1.417 0a0.568 0.568 0 1 1-1.136 0 0.568 0.568 0 0 1 1.136 0m1.417 0a0.568 0.568 0 1 1-1.136 0 0.568 0.568 0 0 1 1.136 0m-18.421-14.932a0.568 0.568 0 1 1-1.136 0 0.568 0.568 0 0 1 1.136 0m-1.361 0a0.568 0.568 0 1 1-1.136 0 0.568 0.568 0 0 1 1.136 0m-1.338 0.248a0.568 0.568 0 1 1-1.136 0 0.568 0.568 0 0 1 1.136 0m-1.269 0.488a0.568 0.568 0 1 1-1.136 0 0.568 0.568 0 0 1 1.136 0m-1.163 0.711a0.568 0.568 0 1 1-1.136 0 0.568 0.568 0 0 1 1.136 0m-1.009 0.91a0.568 0.568 0 1 1-1.136 0 0.568 0.568 0 0 1 1.136 0m-0.828 1.08a0.568 0.568 0 1 1-1.136 0 0.568 0.568 0 0 1 1.136 0m-1.024 0.667a0.57 0.57 0 0 1-0.323 1.09 0.569 0.569 0 0 1 0.323-1.09m-0.489 1.285a0.569 0.569 0 0 1-0.119 1.13 0.56812 0.56812 0 1 1 0.119-1.13m0.367 1.918a0.568 0.568 0 1 1-1.136 0 0.568 0.568 0 0 1 1.136 0m0.107 1.356a0.568 0.568 0 1 1-1.136 0 0.568 0.568 0 0 1 1.136 0m0.352 1.314a0.568 0.568 0 1 1-1.136 0 0.568 0.568 0 0 1 1.136 0m0.585 1.228a0.568 0.568 0 1 1-1.136 0 0.568 0.568 0 0 1 1.136 0m0.8 1.101a0.568 0.568 0 1 1-1.136 0 0.568 0.568 0 0 1 1.136 0m0.987 0.937a0.568 0.568 0 1 1-1.136 0 0.568 0.568 0 0 1 1.136 0m1.141 0.741a0.568 0.568 0 1 1-1.136 0 0.568 0.568 0 0 1 1.136 0m1.258 0.52a0.568 0.568 0 1 1-1.136 0 0.568 0.568 0 0 1 1.136 0m1.33 0.283a0.568 0.568 0 1 1-1.136 0 0.568 0.568 0 0 1 1.136 0m18.573-14.787a0.568 0.568 0 1 1-1.136 0 0.568 0.568 0 0 1 1.136 0m1.375 0a0.568 0.568 0 1 1-1.136 0 0.568 0.568 0 0 1 1.136 0m1.352 0.252a0.568 0.568 0 1 1-1.136 0 0.568 0.568 0 0 1 1.136 0m1.284 0.495a0.568 0.568 0 1 1-1.136 0 0.568 0.568 0 0 1 1.136 0m1.17 0.721a0.568 0.568 0 1 1-1.136 0 0.568 0.568 0 0 1 1.136 0m1.017 0.924a0.567 0.567 0 1 1-1.134 0 0.567 0.567 0 0 1 1.134 0m0.832 1.094a0.567 0.567 0 1 1-1.134 0 0.567 0.567 0 0 1 1.134 0m0.616 1.228a0.567 0.567 0 1 1-1.134 0 0.567 0.567 0 0 1 1.134 0m0.384 1.321a0.567 0.567 0 1 1-1.134 0 0.567 0.567 0 0 1 1.134 0m0.134 1.368a0.567 0.567 0 1 1-1.134 0 0.567 0.567 0 0 1 1.134 0m-0.119 1.37a0.567 0.567 0 1 1-1.134 0 0.567 0.567 0 0 1 1.134 0m-0.367 1.325a0.567 0.567 0 1 1-1.134 0 0.567 0.567 0 0 1 1.134 0m-0.604 1.235a0.567 0.567 0 1 1-1.134 0 0.567 0.567 0 0 1 1.134 0m-0.819 1.104a0.568 0.568 0 1 1-1.136 0 0.568 0.568 0 0 1 1.136 0m-1.009 0.935a0.567 0.567 0 1 1-1.134 0 0.567 0.567 0 0 1 1.134 0m-1.161 0.734a0.568 0.568 0 1 1-1.136 0 0.568 0.568 0 0 1 1.136 0m-1.279 0.509a0.567 0.567 0 1 1-1.134 0 0.567 0.567 0 0 1 1.134 0m-1.348 0.267a0.567 0.567 0 1 1-1.134 0 0.567 0.567 0 0 1 1.134 0m-18.477-14.882a0.568 0.568 0 1 1-1.136 0 0.568 0.568 0 0 1 1.136 0m1.416 0a0.568 0.568 0 1 1-1.136 0 0.568 0.568 0 0 1 1.136 0m1.418 0a0.568 0.568 0 1 1-1.136 0 0.568 0.568 0 0 1 1.136 0m1.416 0a0.568 0.568 0 1 1-1.136 0 0.568 0.568 0 0 1 1.136 0m1.418 0a0.568 0.568 0 1 1-1.136 0 0.568 0.568 0 0 1 1.136 0m1.416 0a0.568 0.568 0 1 1-1.136 0 0.568 0.568 0 0 1 1.136 0m1.418 0a0.568 0.568 0 1 1-1.136 0 0.568 0.568 0 0 1 1.136 0m1.417 0a0.568 0.568 0 1 1-1.136 0 0.568 0.568 0 0 1 1.136 0m1.417 0a0.568 0.568 0 1 1-1.136 0 0.568 0.568 0 0 1 1.136 0m1.417 0a0.568 0.568 0 1 1-1.136 0 0.568 0.568 0 0 1 1.136 0m1.417 0a0.568 0.568 0 1 1-1.136 0 0.568 0.568 0 0 1 1.136 0m1.417 0a0.568 0.568 0 1 1-1.136 0 0.568 0.568 0 0 1 1.136 0m1.417 0a0.568 0.568 0 1 1-1.136 0 0.568 0.568 0 0 1 1.136 0m1.417 0a0.568 0.568 0 1 1-1.136 0 0.568 0.568 0 0 1 1.136 0m-52.895 8.061a0.142 0.142 0 0 1-0.143 0.142h-5.168a0.145 0.145 0 0 1-0.145-0.142v-1.561c0-0.078 0.063-0.142 0.145-0.142h5.168c0.078 0 0.143 0.064 0.143 0.142v1.561m17.068-1.559a0.142 0.142 0 0 0-0.144-0.142h-1.521a0.145 0.145 0 0 1-0.144-0.142v-1.521a0.142 0.142 0 0 0-0.142-0.142h-1.563a0.143 0.143 0 0 0-0.143 0.142v1.521a0.142 0.142 0 0 1-0.143 0.142h-1.521a0.145 0.145 0 0 0-0.145 0.142v1.561c0 0.078 0.063 0.142 0.145 0.142h1.521c0.078 0 0.143 0.064 0.143 0.142v1.52c0 0.078 0.063 0.142 0.143 0.142h1.563a0.144 0.144 0 0 0 0.142-0.142v-1.52c0-0.078 0.063-0.142 0.144-0.142h1.521a0.144 0.144 0 0 0 0.144-0.142v-1.561m-2.246-4.59c-0.428 0.03-0.74 0.019-1.041 0.079-2.965 0.599-4.824 2.568-6.221 5.082-0.109 0.198-0.113 0.564-4e-3 0.757 1.262 2.183 2.838 4.053 5.348 4.841 2.433 0.763 4.563 0.132 6.24-1.735 1.504-1.675 1.846-3.656 0.852-5.72-1.055-2.183-2.933-3.146-5.174-3.304m-17.323 0.023c-3.496-6e-3 -6.05 2.237-6.332 5.133-0.251 2.569 1.789 5.137 4.597 5.746 2.766 0.6 4.977-0.55 6.643-2.557 2.558-3.073 2.466-2.542 0.031-5.591-1.354-1.696-3.202-2.646-4.939-2.731m8.302 2.611c0.848-0.93 1.498-1.778 2.281-2.478 2.966-2.656 6.307-3.641 10.131-2.03 3.618 1.524 5.575 5.294 4.788 9.14-0.726 3.549-4.138 6.252-7.864 6.379-3.453 0.117-6.047-1.427-8.21-3.934-0.331-0.385-0.646-0.786-1.063-1.297-0.299 0.351-0.533 0.618-0.758 0.899-2.313 2.913-5.187 4.567-9.047 4.32-3.785-0.243-7.248-3.72-7.48-7.501-0.301-4.792 3.354-8.726 8.432-8.769 3.362-0.029 5.991 1.707 8.042 4.321 0.222 0.287 0.449 0.572 0.748 0.95" fill="#fff"/></g><g id="leds"><g id="led_on"><path id="led_on_body_main" d="m182.2 46h7.349v3.833h-7.349z" fill="#f2f2f2"/><path id="led_on_filament" d="m183.21 46.358v0.785l0.968-0.104v-0.18c0.504 0.085 1.02 0.452 1.324 0.762v0.879h1v-0.031c0.201 0.185 0.407 0.521 0.549 0.576 0.134 0.055 0.309 0.114 0.546 0.15v0.154l0.185 0.02c-0.267 0.053-0.765 0.405-0.765 0.405l1.522-3e-3 0.016-0.318h6e-3v-0.73l-0.964 0.103v0.31a2.614 2.614 0 0 1-0.546-0.15c-0.141-0.054-0.349-0.388-0.55-0.573v-0.912h-0.89c-0.334-0.348-0.918-0.704-1.433-0.81v-0.23l-0.968-0.103" fill="#22b573" fill-opacity=".7" stroke-width="1.061"/><path id="led_on_mask" d="m183.23 45.941v3.831h5.316l4e-3 -3.831h-5.32" fill="#f2f2f2" opacity=".5"/><path id="led_on_border" d="m182.22 45.937v3.835l0.051 2e-3h0.77v-0.522c0-0.125 0.082-0.213 0.19-0.268v-3.047h-1.011m6.33 3e-3v3.464c0.104 0.056 0.19 0.146 0.19 0.271v0.1h0.83l0.05-2e-3v-3.833h-1.07"/></g><g id="led_rx"><path id="led_rx_body_main" d="m92.8 52.1h7.348v3.833h-7.348z" fill="#f2f2f2"/><path id="led_rx_filament" d="m95.452 52.197-1.525 3e-3 -0.013 0.32h-5e-3v0.73l0.964-0.104v-0.19c0.214 0.034 0.374 0.088 0.507 0.142 0.195 0.075 0.508 0.644 0.79 0.702v0.17l0.033-6e-3v0.597h0.737c0.346 0.317 0.882 0.622 1.352 0.72v0.228l0.967 0.102v-0.782l-0.967 0.1v0.181c-0.457-0.077-0.923-0.387-1.235-0.675v-0.835h-0.854v5e-3h-0.032v0.019c-0.257-0.04-0.562-0.625-0.753-0.698a2.339 2.339 0 0 0-0.545-0.15v-0.153l-0.192-0.02c0.268-0.05 0.77-0.406 0.77-0.406h1e-3" fill="#22b573" fill-opacity=".7" stroke-width="1.061"/><path id="led_rx_mask" d="m99.238 56.03v-3.831h-5.317l-4e-3 3.831h5.321" fill="#f2f2f2" opacity=".5"/><path id="led_rx_borders" d="m92.9 52.194-0.05 3e-3v3.832h1.071v-3.463c-0.105-0.056-0.19-0.146-0.19-0.271v-0.101h-0.831m6.526 3e-3v0.52c0 0.125-0.081 0.213-0.19 0.268v3.047h1.012v-3.834l-0.052-1e-3h-0.77"/></g><g id="led_tx"><path id="led_tx_body_main" d="m92.8 45.7h7.348v3.833h-7.348z" fill="#f2f2f2"/><path id="led_tx_filament" d="m95.452 45.716-1.525 3e-3 -0.013 0.32h-5e-3v0.73l0.964-0.104v-0.19c0.214 0.034 0.374 0.088 0.507 0.142 0.195 0.075 0.508 0.644 0.79 0.702v0.174l0.033-7e-3v0.575h0.715c0.344 0.324 0.894 0.64 1.374 0.738v0.229l0.967 0.103v-0.784l-0.967 0.104v0.18c-0.457-0.078-0.923-0.387-1.235-0.675v-0.856h-0.854v0.027h-0.032v0.016c-0.257-0.04-0.562-0.625-0.753-0.697a2.339 2.339 0 0 0-0.545-0.15v-0.154l-0.19-0.02c0.268-0.05 0.769-0.406 0.769-0.406" fill="#22b573" fill-opacity=".7" stroke-width="1.061"/><path id="led_tx_mask" d="m99.238 49.55v-3.831h-5.317l-4e-3 3.831h5.321" fill="#f2f2f2" opacity=".5"/><path id="led_tx_borders" d="m92.9 45.715-0.05 2e-3v3.833h1.071v-3.464c-0.105-0.056-0.19-0.146-0.19-0.271v-0.1h-0.831m6.526 1e-3v0.522c0 0.125-0.081 0.213-0.19 0.268v3.047h1.012v-3.835l-0.052-2e-3h-0.77"/></g><g id="led_load"><path id="led_load_body_main" d="m92.8 32.5h7.348v3.833h-7.348z" fill="#f2f2f2"/><path id="led_load_filament" d="m93.9 32.888v0.784l0.964-0.103v-0.183c0.51 0.086 1.032 0.458 1.336 0.77v0.806h0.854v-0.047c0.242 0.116 0.511 0.591 0.685 0.658 0.134 0.055 0.31 0.113 0.545 0.15v0.153l0.19 0.02c-0.267 0.05-0.771 0.406-0.771 0.406l1.525-1e-3 0.014-0.32h6e-3v-0.732l-0.964 0.106v0.189a2.23 2.23 0 0 1-0.506-0.142c-0.18-0.07-0.46-0.543-0.724-0.664v-0.737h-0.78c-0.34-0.339-0.909-0.679-1.41-0.782v-0.229l-0.964-0.102" fill="#22b573" fill-opacity=".7" stroke-width="1.061"/><path id="led_load_mask" d="m93.917 32.469v3.831h5.317l4e-3 -3.831h-5.321" fill="#f2f2f2" opacity=".5"/><path id="led_load_borders" d="m92.909 32.466v3.835l0.05 1e-3h0.772v-0.521c0-0.125 0.08-0.213 0.187-0.268v-3.047h-1.008m6.325 3e-3v3.464c0.104 0.056 0.19 0.146 0.19 0.271v0.1h0.83l0.051-2e-3v-3.832h-1.07"/></g></g><g id="components"><g id="capacitors"><g id="c2"><path id="c2_pines" d="m89.498 115.3v1.037h1.272v-1.037h-1.272m0 19.4v1.039h1.272v-1.039h-1.272" fill="#ccc" stroke-width="1.061"/><path id="c2_base" d="m80.957 120.14v13.157c0 0.76 0.623 1.385 1.383 1.385h15.58a1.39 1.39 0 0 0 1.387-1.385v-13.157l-3.811-3.81h-10.731l-3.808 3.81" fill="#333"/><path id="c2_white_circle" d="m98.956 125.51a8.678 8.678 0 0 1-1.614 5.039 8.69 8.69 0 0 1-7.088 3.664 8.684 8.684 0 0 1-7.087-3.664 8.657 8.657 0 0 1-1.615-5.039 8.703 8.703 0 0 1 17.404 0" fill="#e6e6e6"/><path id="c2_black_circle" d="m90.132 134.21a8.689 8.689 0 0 0 7.088-3.664h-14.175a8.685 8.685 0 0 0 7.087 3.664"/></g><g id="c1"><path id="c1_pines" d="m69.5 115.3v1.037h1.273v-1.037h-1.273m0 19.4v1.039h1.273v-1.039h-1.273" fill="#ccc" stroke-width="1.061"/><path id="c1_base" d="m60.797 120.14v13.157c0 0.76 0.623 1.385 1.383 1.385h15.58a1.39 1.39 0 0 0 1.387-1.385v-13.157l-3.811-3.81h-10.731l-3.808 3.81" fill="#333"/><path id="c1_white_circle" d="m78.796 125.51a8.678 8.678 0 0 1-1.614 5.039 8.69 8.69 0 0 1-7.088 3.664 8.684 8.684 0 0 1-7.087-3.664 8.657 8.657 0 0 1-1.615-5.039 8.703 8.703 0 0 1 17.404 0" fill="#e6e6e6"/><path id="c1_black_circle" d="m69.972 134.21a8.689 8.689 0 0 0 7.088-3.664h-14.175a8.68 8.68 0 0 0 7.087 3.664"/></g></g><path id="ic_3_ATMega" d="m96.615 97.069h105.12v15.84h-105.12z" fill="#333"/><path id="ic_2" d="m67.208 46.062h14.173v14.173h-14.173z" fill="#333"/><g id="ic_1"><path id="ic_1_pin_1" d="m44.5 93.998v3.454h4.896v-3.454h-4.896m-15.3 3v10.207h5.285v-10.207h-5.285m15.3 3.5v3.458h4.896v-3.458h-4.896m0 6.499v3.459h4.896v-3.459h-4.896" fill="#999" stroke-width="1.061"/><path id="ic_1_body" d="m44.539 111.68h-9.943v-19.16h9.943v19.16" fill="#303030"/><path id="ic_1_border" d="m34.597 92.528v19.162h9.944v-19.162h-9.944m0.72 0.72h8.5v17.72h-8.5v-17.72m6.683 15.035a0.72 0.72 0 1 0-1e-3 1.44 0.72 0.72 0 0 0 1e-3 -1.44" stroke-width="1.061"/></g></g><g id="conectors"><g id="DC-12"><path id="body_front_sup" d="m4.445 120.58v25.513h7.69v-0.866h0.276v-0.022h29.474v-23.732h-29.75v-0.893h-7.69" fill="#232323" stroke-width="1.424"/><path id="brillo_superior" d="m11.407 122.05h-6.266v-1.051h6.266v1.051m30.048 1.647h-31.937v-1.646h31.937v1.646" fill="#494949"/><path id="sombra_inferior" d="m11.407 145.74h-6.267v-1.051h6.267v1.051m30.048-1.045h-32.973v-1.619h32.973v1.619"/><path id="reborde_trasero" d="m41.884 127.72v11.227h0.976v-2.755h0.728v-5.713h-0.728v-2.759h-0.976" fill="#6d6d6d" stroke-width="1.424"/></g><g id="usb"><path id="usb_body_left" d="m18.384 23.112c-0.035 0-0.065 0.017-0.1 0.02v-0.017a0.617 0.617 0 0 0-0.238 0.066c-0.053 0.021-0.094 0.058-0.141 0.088-0.046 0.029-0.089 0.053-0.132 0.09-0.024 0.022-0.044 0.046-0.066 0.07-0.127 0.129-0.23 0.279-0.23 0.443v3.318h1.928l2.956-1e-3v-4.074h-2.956c0-2e-3 -1.021-3e-3 -1.021-3e-3m-18.384 4.088v32.48h7.564v-32.48h-7.564m17.474 32.464v3.32c0 0.166 0.105 0.317 0.234 0.445 0.02 0.023 0.038 0.047 0.06 0.067 0.049 0.041 0.098 0.07 0.15 0.102 0.042 0.025 0.077 0.057 0.123 0.076a0.618 0.618 0 0 0 0.24 0.067v-0.02c0.034 3e-3 0.064 0.02 0.1 0.02h3.977v-4.077h-4.884" fill="#999" stroke-width="1.061"/><path id="usb_body_main" d="m7.56 27.2h36.682v32.479h-36.682z" fill="#b3b3b3"/><path id="usb_mask_bottom" d="m0 57.5h44.247v2.046h-44.247z" fill="#ccc" opacity=".5"/><path id="usb_mask_top" d="m0 27.2h44.247v2.047h-44.247z" opacity=".2"/></g></g><g id="buttons"><g id="btnReset"><path id="btnReset_body_main" d="m24.378 1.236v2.02h-2.596v2.252h2.596v3.208h-2.596v3.416h2.596v3.375h-2.596v2.251h2.596v2.017h6.248v-0.367h8.263v0.367h6.246v-18.539h-6.245v0.37h-8.263v-0.37h-6.248m20.78 2.02v2.252h2.75v-2.252h-2.75m0 12.25v2.252h2.75v-2.252h-2.75" fill="#d3d3d3" stroke-width="1.061"/><path id="btnReset_body_button" d="m34.758 5.695a4.929 4.929 0 1 1 0 9.858 4.929 4.929 0 0 1 0-9.858m0-0.303a5.1175 5.1175 0 1 1 0 10.235 5.1175 5.1175 0 0 1 0-10.235" fill="#852725"/></g></g><g id="txts" fill="#fff"><path id="txt_pines" d="m92.925 12.006v2e-3a1.43 1.43 0 0 0-0.687 0.155 1.212 1.212 0 0 0-0.463 0.432c-0.067 0.109-0.12 0.242-0.158 0.4-0.04 0.156-0.059 0.367-0.059 0.633v0.68h2.728v-0.688c0-0.25-0.017-0.45-0.051-0.603a1.343 1.343 0 0 0-0.167-0.418 1.204 1.204 0 0 0-0.47-0.43 1.396 1.396 0 0 0-0.673-0.163zm-6e-3 0.38c0.212 0 0.39 0.034 0.532 0.102a0.81 0.81 0 0 1 0.341 0.303c0.07 0.109 0.118 0.228 0.144 0.36 0.025 0.128 0.038 0.28 0.038 0.455v0.341h-2.104v-0.341c0-0.169 0.012-0.313 0.037-0.434 0.023-0.12 0.065-0.235 0.126-0.343a0.814 0.814 0 0 1 0.345-0.33c0.147-0.075 0.327-0.112 0.541-0.112zm76.568 0.32v0.406h-1.667v0.337l1.538 1.32h0.422v-1.305h0.766v-0.352h-0.766v-0.406zm-14.218 0.022a0.94 0.94 0 0 0-0.413 0.084 0.709 0.709 0 0 0-0.283 0.241 0.793 0.793 0 0 0-0.127 0.273c-0.022 0.088-0.034 0.19-0.034 0.306 0 0.13 0.017 0.246 0.05 0.346 0.032 0.099 0.078 0.199 0.14 0.302-0.28-0.026-0.5-0.117-0.663-0.273-0.165-0.156-0.248-0.366-0.248-0.628 0-0.072 8e-3 -0.143 0.025-0.211a0.645 0.645 0 0 1 0.051-0.156v-0.017h-0.348a0.812 0.812 0 0 0-0.034 0.148c-6e-3 0.049-9e-3 0.11-9e-3 0.181 0 0.226 0.04 0.424 0.117 0.594s0.185 0.307 0.323 0.414c0.145 0.114 0.31 0.197 0.498 0.25 0.186 0.05 0.401 0.077 0.643 0.077 0.235 0 0.436-0.029 0.603-0.085a0.998 0.998 0 0 0 0.403-0.243 0.84 0.84 0 0 0 0.185-0.292 1.03 1.03 0 0 0 0.063-0.366 0.93 0.93 0 0 0-0.262-0.67 0.901 0.901 0 0 0-0.68-0.275zm-18.6 0.02a0.616 0.616 0 0 0-0.41 0.137c-0.108 0.09-0.198 0.22-0.271 0.391h-0.01a0.765 0.765 0 0 0-0.279-0.338 0.669 0.669 0 0 0-0.365-0.116 0.612 0.612 0 0 0-0.498 0.243c-0.13 0.162-0.196 0.38-0.196 0.652 0 0.26 0.068 0.475 0.205 0.643a0.634 0.634 0 0 0 0.513 0.252c0.139 0 0.256-0.034 0.349-0.104a0.982 0.982 0 0 0 0.256-0.325h0.01c0.072 0.16 0.17 0.283 0.293 0.37a0.685 0.685 0 0 0 0.41 0.132 0.742 0.742 0 0 0 0.586-0.26c0.153-0.176 0.229-0.413 0.229-0.708 0-0.278-0.078-0.508-0.235-0.691a0.738 0.738 0 0 0-0.587-0.277zm9.553 0.012v1.867h0.319v-1.553l2.407 1.312v-0.39l-2.32-1.236zm38.415 0.01v1.466l-0.334-0.39a9.086 9.086 0 0 0-0.374-0.406 3.977 3.977 0 0 0-0.243-0.231 1.736 1.736 0 0 0-0.224-0.169 0.968 0.968 0 0 0-0.545-0.156c-0.23 0-0.414 0.08-0.548 0.238-0.136 0.159-0.204 0.379-0.204 0.658 0 0.136 0.02 0.275 0.055 0.42s0.074 0.26 0.117 0.346h0.384v-0.017c-0.081-0.124-0.14-0.25-0.18-0.38a1.25 1.25 0 0 1-0.058-0.36c0-0.167 0.04-0.297 0.12-0.39a0.41 0.41 0 0 1 0.331-0.142c0.155 0 0.301 0.044 0.435 0.13 0.134 0.087 0.312 0.248 0.54 0.482 0.108 0.111 0.218 0.231 0.328 0.36l0.33 0.386h0.382v-1.846zm-55.928 2e-3c-0.253 0-0.458 0.027-0.617 0.084a0.998 0.998 0 0 0-0.391 0.24 0.81 0.81 0 0 0-0.183 0.294 1.047 1.047 0 0 0-0.063 0.367c0 0.263 0.087 0.487 0.262 0.67a0.897 0.897 0 0 0 0.68 0.274c0.16 0 0.296-0.026 0.411-0.08a0.718 0.718 0 0 0 0.284-0.243 0.819 0.819 0 0 0 0.128-0.273 1.312 1.312 0 0 0-0.01-0.634c-0.03-0.1-0.079-0.207-0.147-0.32 0.284 0.023 0.507 0.113 0.67 0.267 0.16 0.153 0.241 0.363 0.241 0.633a0.94 0.94 0 0 1-0.023 0.217 0.759 0.759 0 0 1-0.053 0.15v0.018h0.349a0.718 0.718 0 0 0 0.032-0.15 1.27 1.27 0 0 0 0.01-0.18c0-0.225-0.037-0.422-0.113-0.59a1.112 1.112 0 0 0-0.322-0.417 1.361 1.361 0 0 0-0.496-0.245 2.384 2.384 0 0 0-0.65-0.082zm69.46 0c-0.474 0-0.829 0.076-1.063 0.227-0.235 0.15-0.354 0.388-0.354 0.715 0 0.324 0.116 0.562 0.348 0.715 0.231 0.153 0.588 0.228 1.073 0.228 0.48 0 0.837-0.075 1.069-0.225 0.232-0.152 0.349-0.39 0.349-0.718 0-0.322-0.115-0.56-0.343-0.712-0.23-0.154-0.589-0.23-1.078-0.23zm-35.68 0.02a0.884 0.884 0 0 0-0.4 0.08 0.685 0.685 0 0 0-0.259 0.227 0.86 0.86 0 0 0-0.131 0.304c-0.026 0.112-0.039 0.241-0.039 0.389a2.73 2.73 0 0 0 0.015 0.304h-0.725v-1.286h-0.32v1.64h1.404a5.045 5.045 0 0 1-0.044-0.256 2.13 2.13 0 0 1-0.022-0.31c0-0.113 0.01-0.215 0.03-0.305a0.583 0.583 0 0 1 0.096-0.233 0.393 0.393 0 0 1 0.155-0.133 0.523 0.523 0 0 1 0.24-0.05 0.71 0.71 0 0 1 0.254 0.042 0.527 0.527 0 0 1 0.316 0.338c0.025 0.081 0.037 0.166 0.037 0.253 0 0.129-0.022 0.26-0.066 0.395-0.045 0.134-0.099 0.252-0.163 0.352v0.025h0.386c0.044-0.096 0.082-0.213 0.113-0.35 0.031-0.138 0.046-0.28 0.046-0.43 0-0.16-0.022-0.3-0.067-0.422a0.909 0.909 0 0 0-0.198-0.315 0.846 0.846 0 0 0-0.293-0.19 0.973 0.973 0 0 0-0.364-0.069zm14.457 0.015a0.62 0.62 0 0 0-0.505 0.202 0.908 0.908 0 0 0-0.177 0.393h-0.027a0.698 0.698 0 0 0-0.213-0.376 0.56 0.56 0 0 0-0.397-0.162 0.601 0.601 0 0 0-0.291 0.068 0.6 0.6 0 0 0-0.213 0.199 0.869 0.869 0 0 0-0.117 0.275 1.51 1.51 0 0 0-0.037 0.352c0 0.135 0.02 0.275 0.056 0.42 0.036 0.144 0.075 0.26 0.117 0.346h0.383v-0.017a1.517 1.517 0 0 1-0.176-0.371 1.214 1.214 0 0 1-0.044-0.573 0.528 0.528 0 0 1 0.066-0.168 0.336 0.336 0 0 1 0.294-0.158 0.39 0.39 0 0 1 0.342 0.165c0.076 0.11 0.114 0.258 0.114 0.444v0.127h0.305v-0.164c0-0.09 7e-3 -0.175 0.022-0.253a0.491 0.491 0 0 1 0.076-0.2 0.366 0.366 0 0 1 0.152-0.127 0.539 0.539 0 0 1 0.242-0.048 0.522 0.522 0 0 1 0.423 0.167c0.05 0.053 0.087 0.124 0.113 0.21 0.026 0.087 0.04 0.168 0.04 0.245 0 0.131-0.024 0.266-0.07 0.406-0.045 0.14-0.101 0.263-0.17 0.366v0.028h0.383a2.05 2.05 0 0 0 0.117-0.36c0.037-0.147 0.056-0.296 0.056-0.447 0-0.148-0.02-0.282-0.06-0.406a0.878 0.878 0 0 0-0.19-0.325 0.814 0.814 0 0 0-0.615-0.258zm15.106 0.116v0.557h-2.457v0.284a0.37 0.37 0 0 1 0.19 0.057 0.369 0.369 0 0 1 0.115 0.132 0.633 0.633 0 0 1 0.057 0.199c0.012 0.088 0.019 0.17 0.019 0.248h0.249v-0.569h1.827v0.569h0.278v-1.477zm-83.732 0.164v1.466l-0.334-0.39a9.055 9.055 0 0 0-0.374-0.403 4.04 4.04 0 0 0-0.243-0.233 1.727 1.727 0 0 0-0.223-0.169 0.977 0.977 0 0 0-0.546-0.155 0.68 0.68 0 0 0-0.548 0.237c-0.136 0.159-0.202 0.378-0.202 0.658 0 0.135 0.017 0.275 0.052 0.42 0.036 0.144 0.075 0.26 0.118 0.347h0.383v-0.019c-0.08-0.123-0.14-0.25-0.178-0.379a1.25 1.25 0 0 1-0.059-0.36c0-0.168 0.04-0.297 0.12-0.39 0.08-0.094 0.191-0.14 0.333-0.14 0.155 0 0.3 0.042 0.433 0.128 0.133 0.087 0.314 0.248 0.541 0.482 0.109 0.111 0.217 0.231 0.327 0.36l0.33 0.386h0.383v-1.846zm13.35 3e-3c-0.474 0-0.83 0.076-1.064 0.227-0.236 0.15-0.353 0.39-0.353 0.716 0 0.324 0.116 0.563 0.348 0.715 0.23 0.153 0.588 0.229 1.073 0.229 0.48 0 0.837-0.076 1.069-0.226 0.232-0.151 0.349-0.39 0.349-0.718 0-0.322-0.115-0.559-0.343-0.712-0.23-0.153-0.589-0.231-1.078-0.231zm33.614 0.01c0.202 0 0.358 0.051 0.467 0.153 0.107 0.1 0.161 0.24 0.161 0.417a0.61 0.61 0 0 1-0.037 0.214 0.564 0.564 0 0 1-0.118 0.182 0.658 0.658 0 0 1-0.264 0.164c-0.112 0.039-0.266 0.058-0.458 0.058a1.885 1.885 0 0 1-0.172-7e-3 1.098 1.098 0 0 1-0.15-0.564c0-0.075 6e-3 -0.146 0.018-0.214a0.48 0.48 0 0 1 0.271-0.352 0.674 0.674 0 0 1 0.282-0.05zm-54.654 0.025a0.62 0.62 0 0 0-0.505 0.202 0.927 0.927 0 0 0-0.179 0.393h-0.025a0.698 0.698 0 0 0-0.213-0.377 0.56 0.56 0 0 0-0.397-0.16 0.601 0.601 0 0 0-0.291 0.067 0.6 0.6 0 0 0-0.213 0.199 0.87 0.87 0 0 0-0.117 0.275 1.71 1.71 0 0 0 0.018 0.772c0.035 0.144 0.074 0.26 0.117 0.347h0.384v-0.019a1.507 1.507 0 0 1-0.176-0.369 1.23 1.23 0 0 1-0.063-0.37c0-0.076 7e-3 -0.144 0.019-0.204a0.528 0.528 0 0 1 0.066-0.168 0.339 0.339 0 0 1 0.121-0.118 0.342 0.342 0 0 1 0.173-0.04c0.15 0 0.262 0.054 0.34 0.165 0.077 0.11 0.116 0.258 0.116 0.444v0.127h0.305v-0.164c0-0.09 8e-3 -0.175 0.022-0.253a0.491 0.491 0 0 1 0.076-0.2 0.365 0.365 0 0 1 0.152-0.127 0.539 0.539 0 0 1 0.242-0.048 0.527 0.527 0 0 1 0.423 0.167c0.05 0.053 0.087 0.124 0.113 0.21a0.862 0.862 0 0 1 0.038 0.245c0 0.13-0.022 0.267-0.067 0.407s-0.102 0.263-0.17 0.367v0.026h0.382a2.05 2.05 0 0 0 0.117-0.36c0.037-0.147 0.056-0.296 0.056-0.447 0-0.148-0.021-0.283-0.062-0.406a0.878 0.878 0 0 0-0.19-0.325 0.814 0.814 0 0 0-0.612-0.258zm36.074 2e-3c0.16 0 0.285 0.053 0.376 0.16a0.63 0.63 0 0 1 0.138 0.427 0.604 0.604 0 0 1-0.161 0.432 0.535 0.535 0 0 1-0.408 0.17 0.631 0.631 0 0 1-0.348-0.098 0.73 0.73 0 0 1-0.243-0.267c0.041-0.113 0.073-0.204 0.096-0.272s0.048-0.132 0.075-0.19c0.068-0.143 0.137-0.239 0.205-0.288a0.441 0.441 0 0 1 0.27-0.074zm-8.073 0.014c0.039 0 0.07 2e-3 0.096 5e-3l0.075 3e-3c0.049 0.085 0.086 0.177 0.111 0.275a1.134 1.134 0 0 1 0.02 0.508 0.487 0.487 0 0 1-0.269 0.349 0.692 0.692 0 0 1-0.282 0.048c-0.2 0-0.355-0.05-0.465-0.15a0.543 0.543 0 0 1-0.164-0.418c0-0.077 0.012-0.15 0.037-0.215a0.513 0.513 0 0 1 0.117-0.185 0.634 0.634 0 0 1 0.267-0.161c0.114-0.04 0.267-0.059 0.457-0.059zm69.538 2e-3c0.188 0 0.349 9e-3 0.483 0.025 0.133 0.014 0.248 0.042 0.347 0.085 0.097 0.041 0.17 0.1 0.217 0.175 0.048 0.076 0.072 0.171 0.072 0.286a0.523 0.523 0 0 1-0.076 0.296 0.48 0.48 0 0 1-0.217 0.17 1.167 1.167 0 0 1-0.344 0.086 4.782 4.782 0 0 1-0.48 0.02c-0.173 0-0.332-8e-3 -0.477-0.023a1.16 1.16 0 0 1-0.353-0.085 0.491 0.491 0 0 1-0.217-0.178 0.527 0.527 0 0 1-0.07-0.286c0-0.116 0.023-0.21 0.07-0.283a0.478 0.478 0 0 1 0.213-0.175 1.12 1.12 0 0 1 0.348-0.088c0.137-0.016 0.298-0.025 0.484-0.025zm-62.832 0.04h2e-3c0.113 0 0.213 0.023 0.3 0.07 0.087 0.046 0.17 0.13 0.25 0.25-0.023 0.08-0.052 0.164-0.088 0.25-0.035 0.083-0.064 0.149-0.086 0.194a0.648 0.648 0 0 1-0.17 0.224 0.372 0.372 0 0 1-0.23 0.073 0.35 0.35 0 0 1-0.296-0.146 0.616 0.616 0 0 1-0.11-0.378c0-0.156 0.04-0.285 0.118-0.385a0.37 0.37 0 0 1 0.31-0.153zm-19.788 0.06v0.558h-2.457v0.284a0.37 0.37 0 0 1 0.19 0.057 0.37 0.37 0 0 1 0.116 0.132 0.635 0.635 0 0 1 0.056 0.199c0.012 0.088 0.019 0.17 0.019 0.247h0.249v-0.568h1.827v0.568h0.278v-1.476zm-31.52 0.181v1.742h2.725v-0.362h-1.31v-1.185h-0.323v1.185h-0.77v-1.38zm37.64 0.038c0.188 0 0.349 8e-3 0.483 0.024 0.133 0.014 0.248 0.043 0.347 0.086 0.097 0.042 0.17 0.1 0.217 0.176 0.048 0.075 0.07 0.17 0.07 0.285 0 0.123-0.024 0.22-0.074 0.295a0.486 0.486 0 0 1-0.219 0.171 1.167 1.167 0 0 1-0.344 0.085c-0.128 0.014-0.287 0.02-0.477 0.02-0.174 0-0.333-7e-3 -0.478-0.021a1.156 1.156 0 0 1-0.353-0.087 0.489 0.489 0 0 1-0.217-0.177 0.528 0.528 0 0 1-0.072-0.286c0-0.116 0.024-0.21 0.072-0.284a0.478 0.478 0 0 1 0.213-0.176 1.12 1.12 0 0 1 0.348-0.087c0.137-0.016 0.298-0.024 0.484-0.024zm46.586 2e-3h1.23v1.056zm-76.7 1.57v0.34h2.227l-2.226 1.18v0.56h2.727v-0.338h-2.439l2.44-1.292v-0.45zm9.601 0.596v0.557h-2.458v0.284a0.37 0.37 0 0 1 0.19 0.057 0.371 0.371 0 0 1 0.117 0.132 0.632 0.632 0 0 1 0.057 0.2c0.012 0.087 0.017 0.17 0.017 0.247h0.25v-0.569h1.827v0.569h0.279v-1.477zm7.196 0v0.557h-2.458v0.284a0.37 0.37 0 0 1 0.19 0.057 0.37 0.37 0 0 1 0.116 0.132 0.635 0.635 0 0 1 0.057 0.2c0.013 0.087 0.018 0.17 0.018 0.247h0.249v-0.569h1.828v0.569h0.278v-1.477zm14.401 0v0.557h-2.458v0.284a0.37 0.37 0 0 1 0.19 0.057 0.37 0.37 0 0 1 0.116 0.132 0.64 0.64 0 0 1 0.057 0.2c0.013 0.087 0.018 0.17 0.018 0.247h0.249v-0.569h1.827v0.569h0.278v-1.477zm-7.206 2e-3v0.556h-2.456v0.285a0.37 0.37 0 0 1 0.19 0.057 0.37 0.37 0 0 1 0.116 0.132 0.635 0.635 0 0 1 0.056 0.199c0.012 0.088 0.019 0.17 0.019 0.247h0.249v-0.568h1.826v0.568h0.279v-1.476zm-31.519 0.111v1.796h2.725v-1.796h-0.322v1.434h-1.011v-1.434h-0.322v1.434h-0.747v-1.434zm8.882 2.005v1.09h0.32v-0.73h0.667a1.784 1.784 0 0 1 0.125 0.658c0 0.319-0.098 0.57-0.293 0.756-0.197 0.186-0.47 0.279-0.823 0.279-0.335 0-0.6-0.088-0.796-0.265-0.196-0.179-0.294-0.42-0.294-0.725a1.558 1.558 0 0 1 0.131-0.65c0.032-0.07 0.072-0.141 0.12-0.213 0.047-0.072 0.086-0.127 0.115-0.164v-0.034h-0.43a2.52 2.52 0 0 0-0.19 0.524 2.06 2.06 0 0 0-0.055 0.474c0 0.444 0.125 0.795 0.378 1.05 0.251 0.254 0.595 0.38 1.03 0.38 0.239 0 0.447-0.033 0.625-0.102 0.177-0.068 0.325-0.166 0.444-0.291 0.117-0.125 0.205-0.276 0.263-0.453 0.059-0.177 0.088-0.372 0.088-0.584 0-0.165-0.024-0.334-0.074-0.51a3.526 3.526 0 0 0-0.18-0.49zm-6.157 0.143-1.19 1.025a0.906 0.906 0 0 0-0.298-0.409 0.808 0.808 0 0 0-0.495-0.148 0.691 0.691 0 0 0-0.36 0.085 0.674 0.674 0 0 0-0.235 0.23 0.856 0.856 0 0 0-0.113 0.298 2.14 2.14 0 0 0-0.034 0.411v0.763h2.726v-0.361h-1.084v-0.512l1.084-0.912zm-1.957 0.848c0.102 0 0.188 0.012 0.255 0.04a0.475 0.475 0 0 1 0.288 0.34c0.02 0.085 0.03 0.185 0.03 0.3v0.366h-1.029v-0.428c0-0.098 8e-3 -0.182 0.022-0.254a0.493 0.493 0 0 1 0.074-0.187 0.352 0.352 0 0 1 0.153-0.135 0.48 0.48 0 0 1 0.207-0.042zm1.957 1.822-2.725 0.992v0.483l2.725 0.993v-0.369l-0.759-0.266v-1.18l0.759-0.268zm-1.07 0.765v0.958l-1.338-0.48zm23.984 106.61v2.06h0.287v-0.87h2.141v-0.322h-2.141v-0.867zm-6.12 0.54v1.552h2.428v-0.323h-1.17v-1.056h-0.287v1.056h-0.685v-1.229zm6.12 1.707v1.6h2.428v-1.6h-0.287v1.277h-0.902v-1.277h-0.287v1.277h-0.665v-1.277zm-6.12 0.359v1.6h2.428v-1.6h-0.287v1.277h-0.902v-1.277h-0.288v1.277h-0.665v-1.277zm36.6 1.175c-0.237 0-0.441 0.045-0.613 0.137-0.172 0.093-0.31 0.222-0.413 0.387-0.06 0.097-0.107 0.216-0.14 0.356-0.036 0.14-0.052 0.327-0.052 0.564v0.608h2.429v-0.614c0-0.223-0.015-0.403-0.046-0.539a1.199 1.199 0 0 0-0.15-0.372 1.07 1.07 0 0 0-0.417-0.382 1.24 1.24 0 0 0-0.599-0.145zm-7.001 0.039c-0.236 0-0.44 0.047-0.613 0.14a1.086 1.086 0 0 0-0.553 0.74 2.44 2.44 0 0 0-0.052 0.566v0.606h2.43v-0.613a2.53 2.53 0 0 0-0.046-0.538 1.199 1.199 0 0 0-0.15-0.372 1.073 1.073 0 0 0-0.417-0.384 1.24 1.24 0 0 0-0.6-0.145zm6.995 0.297c0.189 0 0.347 0.032 0.473 0.093 0.126 0.06 0.227 0.149 0.304 0.27a0.921 0.921 0 0 1 0.128 0.32c0.023 0.115 0.035 0.25 0.035 0.406v0.303h-1.875v-0.303c0-0.15 0.01-0.28 0.032-0.387a0.988 0.988 0 0 1 0.113-0.305 0.733 0.733 0 0 1 0.31-0.297c0.13-0.066 0.29-0.1 0.48-0.1zm-7.001 0.04c0.189 0 0.347 0.031 0.473 0.092 0.126 0.06 0.227 0.15 0.305 0.271a0.91 0.91 0 0 1 0.127 0.32c0.023 0.115 0.035 0.25 0.035 0.405v0.304h-1.875v-0.304c0-0.15 0.01-0.279 0.033-0.386a0.989 0.989 0 0 1 0.112-0.305 0.733 0.733 0 0 1 0.31-0.297c0.13-0.067 0.29-0.1 0.48-0.1zm-21.738 0.208c-0.174 0-0.31 0.046-0.406 0.138a0.843 0.843 0 0 0-0.217 0.407c-0.023 0.09-0.045 0.198-0.067 0.327-0.022 0.128-0.04 0.227-0.056 0.297-0.03 0.132-0.074 0.223-0.132 0.275a0.343 0.343 0 0 1-0.238 0.078c-0.113 0-0.205-0.052-0.277-0.157a0.729 0.729 0 0 1-0.107-0.417c0-0.158 0.025-0.312 0.077-0.462a1.11 1.11 0 0 1 0.195-0.365v-0.023h-0.382a2.17 2.17 0 0 0-0.17 0.848c0 0.265 0.066 0.483 0.196 0.655a0.6 0.6 0 0 0 0.5 0.258 0.609 0.609 0 0 0 0.432-0.155c0.11-0.105 0.187-0.264 0.233-0.48 0.022-0.106 0.04-0.207 0.054-0.301 0.014-0.096 0.031-0.185 0.053-0.267a0.534 0.534 0 0 1 0.12-0.24c0.051-0.053 0.13-0.08 0.237-0.08 0.125 0 0.225 0.057 0.3 0.17 0.076 0.11 0.113 0.265 0.113 0.465 0 0.142-0.028 0.293-0.083 0.454a1.338 1.338 0 0 1-0.236 0.425v0.023h0.404c0.064-0.144 0.113-0.287 0.145-0.426 0.033-0.14 0.049-0.298 0.049-0.473 0-0.163-0.02-0.302-0.059-0.417a0.985 0.985 0 0 0-0.163-0.305 0.658 0.658 0 0 0-0.234-0.185 0.643 0.643 0 0 0-0.281-0.067zm-5.428 0.154-1.062 0.914a0.81 0.81 0 0 0-0.266-0.365 0.715 0.715 0 0 0-0.44-0.132 0.62 0.62 0 0 0-0.32 0.075 0.604 0.604 0 0 0-0.21 0.206 0.755 0.755 0 0 0-0.101 0.264c-0.02 0.098-0.03 0.221-0.03 0.368v0.68h2.43v-0.323h-0.967v-0.455l0.966-0.813zm13.322 0.45c-0.112 0-0.203 0.017-0.274 0.05a0.536 0.536 0 0 0-0.28 0.301 0.817 0.817 0 0 0-0.054 0.18h-0.023a0.625 0.625 0 0 0-0.189-0.337 0.5 0.5 0 0 0-0.354-0.143 0.532 0.532 0 0 0-0.26 0.06 0.537 0.537 0 0 0-0.189 0.179 0.77 0.77 0 0 0-0.104 0.244c-0.021 0.09-0.033 0.195-0.033 0.314 0 0.12 0.017 0.245 0.05 0.375 0.03 0.128 0.065 0.23 0.103 0.307h0.342v-0.016a1.35 1.35 0 0 1-0.157-0.33 1.09 1.09 0 0 1-0.056-0.329c0-0.067 5e-3 -0.127 0.016-0.18a0.473 0.473 0 0 1 0.059-0.151 0.305 0.305 0 0 1 0.262-0.142 0.35 0.35 0 0 1 0.305 0.15 0.674 0.674 0 0 1 0.102 0.393v0.115h0.271v-0.147c0-0.08 6e-3 -0.156 0.02-0.226a0.438 0.438 0 0 1 0.068-0.177 0.324 0.324 0 0 1 0.135-0.114 0.48 0.48 0 0 1 0.216-0.043 0.55 0.55 0 0 1 0.218 0.039c0.057 0.023 0.11 0.06 0.158 0.11 0.045 0.047 0.078 0.11 0.101 0.187a0.78 0.78 0 0 1 0.035 0.22 1.322 1.322 0 0 1-0.212 0.687v0.025h0.341c0.038-0.084 0.073-0.19 0.104-0.321a1.64 1.64 0 0 0 0.049-0.399c0-0.131-0.017-0.252-0.053-0.361a0.778 0.778 0 0 0-0.17-0.29 0.727 0.727 0 0 0-0.547-0.23zm-15.068 0.306c0.092 0 0.168 0.01 0.227 0.035a0.426 0.426 0 0 1 0.258 0.302c0.018 0.076 0.027 0.165 0.027 0.268v0.326h-0.917v-0.38c0-0.088 6e-3 -0.163 0.019-0.228a0.436 0.436 0 0 1 0.066-0.165 0.315 0.315 0 0 1 0.136-0.122 0.43 0.43 0 0 1 0.184-0.036zm42.107 0.136v0.302h1.984l-1.984 1.05v0.5h2.43v-0.3h-2.173l2.172-1.152v-0.4zm-7.406 1.068v0.302h1.983l-1.983 1.05v0.5h2.429v-0.3h-2.173l2.173-1.154v-0.398zm-7 0.04v0.301h1.983l-1.984 1.05v0.501h2.429v-0.301h-2.172l2.172-1.152v-0.4zm-22.263 0.125v1.601h2.429v-1.6h-0.287v1.277h-0.902v-1.278h-0.288v1.278h-0.665v-1.278zm7.92 0.24v0.33l2.138 0.762-2.137 0.762v0.345l2.429-0.883v-0.43zm7.15 0.036v0.33l2.135 0.761-2.135 0.762v0.345l2.428-0.884v-0.431zm66.14 0.12v0.36h-1.486v0.3l1.371 1.177h0.375v-1.163h0.683v-0.314h-0.683v-0.36zm-86.115 0c-0.2 0-0.379 0.027-0.537 0.08a1.099 1.099 0 0 0-0.4 0.227 0.969 0.969 0 0 0-0.243 0.354 1.2 1.2 0 0 0-0.086 0.468c0 0.167 0.028 0.323 0.085 0.466a0.94 0.94 0 0 0 0.245 0.356c0.112 0.1 0.246 0.174 0.404 0.227 0.157 0.052 0.334 0.079 0.532 0.079a1.7 1.7 0 0 0 0.537-0.08c0.157-0.053 0.288-0.127 0.396-0.225a0.965 0.965 0 0 0 0.246-0.356 1.24 1.24 0 0 0 0.085-0.467c0-0.175-0.028-0.33-0.084-0.466a0.966 0.966 0 0 0-0.247-0.356 1.089 1.089 0 0 0-0.394-0.226 1.66 1.66 0 0 0-0.54-0.08zm57.046 0.06c-0.423 0-0.74 0.067-0.948 0.202-0.21 0.133-0.315 0.347-0.315 0.638 0 0.288 0.104 0.5 0.31 0.636s0.524 0.204 0.956 0.204c0.428 0 0.747-0.067 0.953-0.201 0.207-0.135 0.31-0.347 0.31-0.639 0-0.287-0.102-0.498-0.305-0.634-0.205-0.137-0.525-0.207-0.961-0.207zm15.34 0v1.306l-0.298-0.347a8.066 8.066 0 0 0-0.332-0.36 3.603 3.603 0 0 0-0.217-0.208 1.525 1.525 0 0 0-0.2-0.15 0.906 0.906 0 0 0-0.486-0.14 0.606 0.606 0 0 0-0.487 0.213c-0.121 0.142-0.18 0.337-0.18 0.586 0 0.121 0.015 0.246 0.046 0.375 0.032 0.129 0.066 0.23 0.104 0.308h0.343v-0.016a1.302 1.302 0 0 1-0.16-0.337 1.124 1.124 0 0 1-0.052-0.322c0-0.15 0.036-0.265 0.108-0.347a0.364 0.364 0 0 1 0.295-0.126c0.138 0 0.267 0.04 0.386 0.117s0.28 0.219 0.482 0.427c0.097 0.1 0.194 0.207 0.292 0.323l0.294 0.343h0.34v-1.646zm21.099 0.02a0.785 0.785 0 0 0-0.356 0.072 0.611 0.611 0 0 0-0.232 0.202 0.773 0.773 0 0 0-0.117 0.272 1.548 1.548 0 0 0-0.034 0.346c0 0.036 2e-3 0.079 4e-3 0.127 2e-3 0.05 5e-3 0.097 0.01 0.144h-0.645v-1.147h-0.288v1.46h1.251a4.425 4.425 0 0 1-0.038-0.226 1.936 1.936 0 0 1-0.019-0.279c0-0.1 0.01-0.19 0.027-0.27a0.517 0.517 0 0 1 0.086-0.207 0.347 0.347 0 0 1 0.138-0.119 0.634 0.634 0 0 1 0.44-7e-3 0.45 0.45 0 0 1 0.28 0.301 0.773 0.773 0 0 1 0.034 0.224c0 0.116-0.02 0.232-0.058 0.352-0.04 0.12-0.089 0.224-0.145 0.314v0.023h0.344c0.04-0.085 0.07-0.19 0.098-0.312 0.028-0.123 0.043-0.251 0.043-0.384 0-0.142-0.022-0.267-0.062-0.375a0.747 0.747 0 0 0-0.435-0.45 0.87 0.87 0 0 0-0.325-0.061zm-14.35 0.01a0.64 0.64 0 0 0-0.273 0.05 0.55 0.55 0 0 0-0.176 0.129 0.815 0.815 0 0 0-0.158 0.35h-0.023a0.621 0.621 0 0 0-0.19-0.335 0.497 0.497 0 0 0-0.352-0.144 0.534 0.534 0 0 0-0.26 0.06 0.542 0.542 0 0 0-0.19 0.179 0.767 0.767 0 0 0-0.104 0.244 1.538 1.538 0 0 0 0.016 0.688c0.031 0.13 0.067 0.231 0.105 0.309h0.34v-0.017a1.35 1.35 0 0 1-0.156-0.33 1.09 1.09 0 0 1-0.056-0.329 0.94 0.94 0 0 1 0.017-0.181 0.465 0.465 0 0 1 0.059-0.15 0.3 0.3 0 0 1 0.262-0.142c0.133 0 0.234 0.05 0.303 0.148s0.103 0.23 0.103 0.396v0.114h0.27v-0.147c0-0.08 7e-3 -0.156 0.02-0.225a0.438 0.438 0 0 1 0.069-0.177 0.328 0.328 0 0 1 0.136-0.115 0.48 0.48 0 0 1 0.215-0.042c0.089 0 0.161 0.011 0.219 0.036 0.057 0.024 0.11 0.062 0.158 0.112 0.044 0.047 0.078 0.11 0.101 0.187s0.034 0.15 0.034 0.218c0 0.117-0.022 0.239-0.062 0.364s-0.09 0.233-0.15 0.325v0.025h0.34c0.037-0.084 0.073-0.19 0.105-0.321a1.64 1.64 0 0 0 0.048-0.398c0-0.132-0.018-0.252-0.054-0.362a0.778 0.778 0 0 0-0.17-0.289 0.72 0.72 0 0 0-0.545-0.23zm-13.93 0.1v0.495h-2.189v0.253c0.07 5e-3 0.126 0.02 0.168 0.05a0.337 0.337 0 0 1 0.104 0.119c0.022 0.04 0.038 0.099 0.05 0.177 0.011 0.078 0.016 0.151 0.016 0.22h0.223v-0.506h1.628v0.506h0.247v-1.314zm-65.205 0.146c0.318 0 0.562 0.072 0.732 0.216a0.715 0.715 0 0 1 0.253 0.575 0.72 0.72 0 0 1-0.253 0.577c-0.17 0.144-0.414 0.216-0.732 0.216-0.316 0-0.56-0.07-0.73-0.21a0.715 0.715 0 0 1-0.258-0.583c0-0.244 0.086-0.437 0.258-0.578 0.17-0.142 0.414-0.213 0.73-0.213zm57.046 0.054c0.167 0 0.31 8e-3 0.43 0.022 0.119 0.013 0.223 0.039 0.31 0.077a0.41 0.41 0 0 1 0.193 0.156 0.471 0.471 0 0 1 0.064 0.255 0.46 0.46 0 0 1-0.067 0.262 0.434 0.434 0 0 1-0.195 0.153c-0.09 0.039-0.192 0.064-0.306 0.076a4.246 4.246 0 0 1-0.427 0.017c-0.154 0-0.295-6e-3 -0.424-0.019a1.03 1.03 0 0 1-0.315-0.076 0.437 0.437 0 0 1-0.194-0.158 0.471 0.471 0 0 1-0.063-0.255c0-0.103 0.02-0.188 0.063-0.253a0.43 0.43 0 0 1 0.19-0.157 0.983 0.983 0 0 1 0.31-0.078c0.122-0.014 0.265-0.022 0.43-0.022zm27.972 0.283h1.097v0.942zm-43.443 0.104v0.958h0.247v-0.318h1.934v0.318h0.247v-0.958h-0.247v0.318h-1.934v-0.318zm-34.24 0.74-1.062 0.914a0.802 0.802 0 0 0-0.266-0.363 0.72 0.72 0 0 0-0.44-0.134 0.614 0.614 0 0 0-0.32 0.077 0.603 0.603 0 0 0-0.21 0.205 0.755 0.755 0 0 0-0.102 0.263c-0.02 0.098-0.03 0.221-0.03 0.368v0.68h2.43v-0.323h-0.966v-0.455l0.966-0.812zm28.04 0.338v0.972h0.285v-0.652h0.595a1.594 1.594 0 0 1 0.111 0.586c0 0.285-0.087 0.51-0.26 0.675-0.176 0.165-0.42 0.247-0.735 0.247-0.298 0-0.535-0.078-0.709-0.235-0.175-0.16-0.262-0.375-0.262-0.646a1.392 1.392 0 0 1 0.117-0.58c0.028-0.062 0.065-0.125 0.107-0.19 0.042-0.064 0.076-0.112 0.103-0.146v-0.03h-0.384c-0.08 0.167-0.136 0.322-0.169 0.467a1.85 1.85 0 0 0-0.05 0.423c0 0.396 0.112 0.707 0.337 0.935 0.224 0.226 0.53 0.34 0.919 0.34 0.212 0 0.398-0.032 0.557-0.093 0.157-0.06 0.288-0.147 0.394-0.26a1.07 1.07 0 0 0 0.236-0.402c0.052-0.158 0.077-0.33 0.077-0.52a1.66 1.66 0 0 0-0.066-0.456 3.127 3.127 0 0 0-0.16-0.435zm-7 0.04v0.971h0.284v-0.65h0.595a1.572 1.572 0 0 1 0.111 0.584c0 0.285-0.087 0.51-0.26 0.675-0.176 0.166-0.42 0.25-0.735 0.25-0.297 0-0.535-0.08-0.709-0.238-0.175-0.159-0.262-0.374-0.262-0.646a1.374 1.374 0 0 1 0.224-0.767c0.043-0.065 0.077-0.115 0.103-0.148v-0.03h-0.384c-0.08 0.167-0.136 0.323-0.168 0.468-0.034 0.143-0.05 0.283-0.05 0.421 0 0.396 0.112 0.708 0.337 0.935 0.224 0.226 0.53 0.34 0.918 0.34 0.212 0 0.398-0.03 0.557-0.09 0.158-0.062 0.289-0.148 0.394-0.26 0.104-0.111 0.184-0.247 0.236-0.404 0.052-0.158 0.077-0.331 0.077-0.52a1.65 1.65 0 0 0-0.065-0.455 3.133 3.133 0 0 0-0.162-0.436zm13.2 0.105v0.33l2.137 0.762-2.137 0.761v0.346l2.429-0.885v-0.43zm23.878 0-2.429 0.884v0.43l2.429 0.885v-0.328l-0.677-0.237v-1.052l0.677-0.237zm14.403 4e-3 -2.429 0.884v0.43l2.429 0.885v-0.328l-0.677-0.237v-1.052l0.677-0.237zm7.203 0-2.429 0.884v0.43l2.429 0.885v-0.328l-0.677-0.237v-1.052l0.677-0.237zm-28.797 2e-3 -2.429 0.884v0.43l2.429 0.885v-0.328l-0.677-0.237v-1.052l0.677-0.237zm14.403 3e-3 -2.429 0.884v0.43l2.429 0.885v-0.328l-0.677-0.237v-1.052l0.677-0.237zm21.593 0-2.428 0.884v0.43l2.428 0.885v-0.328l-0.677-0.237v-1.052l0.677-0.237zm-88.667 0.264c0.091 0 0.166 0.011 0.225 0.035a0.426 0.426 0 0 1 0.258 0.302c0.018 0.076 0.027 0.166 0.027 0.268v0.327h-0.917v-0.381a1.1 1.1 0 0 1 0.02-0.226 0.44 0.44 0 0 1 0.065-0.167 0.316 0.316 0 0 1 0.137-0.12 0.43 0.43 0 0 1 0.185-0.038zm8.946 0.067a0.638 0.638 0 0 0-0.274 0.05 0.55 0.55 0 0 0-0.28 0.3 0.817 0.817 0 0 0-0.054 0.18h-0.023a0.625 0.625 0 0 0-0.19-0.336 0.5 0.5 0 0 0-0.354-0.144 0.534 0.534 0 0 0-0.26 0.062 0.533 0.533 0 0 0-0.188 0.177 0.77 0.77 0 0 0-0.104 0.245c-0.022 0.09-0.034 0.194-0.034 0.313 0 0.12 0.017 0.246 0.05 0.375 0.031 0.128 0.066 0.23 0.104 0.308h0.341v-0.016a1.35 1.35 0 0 1-0.156-0.33 1.09 1.09 0 0 1-0.056-0.33c0-0.067 5e-3 -0.127 0.016-0.18a0.473 0.473 0 0 1 0.059-0.15 0.298 0.298 0 0 1 0.262-0.14 0.35 0.35 0 0 1 0.304 0.147 0.674 0.674 0 0 1 0.103 0.394v0.114h0.271v-0.147c0-0.08 6e-3 -0.156 0.02-0.225a0.438 0.438 0 0 1 0.068-0.177 0.324 0.324 0 0 1 0.135-0.115 0.48 0.48 0 0 1 0.215-0.042c0.088 0 0.16 0.013 0.218 0.038 0.058 0.024 0.11 0.06 0.159 0.11a0.47 0.47 0 0 1 0.1 0.189 0.77 0.77 0 0 1 0.036 0.218 1.333 1.333 0 0 1-0.212 0.689v0.023h0.34c0.039-0.084 0.073-0.19 0.105-0.32 0.032-0.131 0.048-0.264 0.048-0.4 0-0.13-0.017-0.251-0.053-0.361a0.778 0.778 0 0 0-0.17-0.289 0.73 0.73 0 0 0-0.546-0.23zm7.096 0.02a0.785 0.785 0 0 0-0.356 0.073 0.611 0.611 0 0 0-0.232 0.202 0.77 0.77 0 0 0-0.117 0.272 1.548 1.548 0 0 0-0.034 0.346 2.502 2.502 0 0 0 0.014 0.271h-0.646v-1.147h-0.286v1.462h1.251a4.28 4.28 0 0 1-0.04-0.229 1.922 1.922 0 0 1-0.018-0.278c0-0.1 8e-3 -0.19 0.025-0.27a0.518 0.518 0 0 1 0.087-0.207 0.347 0.347 0 0 1 0.138-0.12 0.634 0.634 0 0 1 0.44-7e-3 0.47 0.47 0 0 1 0.281 0.302 0.773 0.773 0 0 1 0.034 0.224c0 0.116-0.02 0.232-0.06 0.352s-0.089 0.224-0.146 0.313v0.024h0.345c0.039-0.085 0.072-0.19 0.1-0.312 0.028-0.123 0.042-0.251 0.042-0.384 0-0.142-0.02-0.267-0.06-0.375a0.753 0.753 0 0 0-0.437-0.45 0.87 0.87 0 0 0-0.325-0.061zm-22.846 0.311v0.958h0.247v-0.317h1.933v0.317h0.249v-0.958h-0.25v0.318h-1.932v-0.318zm65.714 0.01v0.855l-1.193-0.428zm14.403 6e-3v0.854l-1.193-0.428zm7.203 0v0.854l-1.193-0.428zm-28.798 0v0.855l-1.193-0.428zm14.404 4e-3v0.854l-1.193-0.428zm21.59 0v0.854l-1.192-0.428z"/><path id="txt_icsp_2" d="m198.17 20.35c-0.475 0-0.83 0.076-1.063 0.227-0.236 0.15-0.354 0.39-0.354 0.716 0 0.324 0.116 0.563 0.348 0.715 0.23 0.153 0.589 0.229 1.073 0.229 0.481 0 0.838-0.076 1.07-0.226 0.232-0.151 0.347-0.39 0.347-0.718 0-0.322-0.113-0.559-0.341-0.712-0.23-0.153-0.59-0.231-1.08-0.231m-163.92 0.189c-0.33 0-0.603 0.081-0.817 0.245a0.749 0.749 0 0 0-0.323 0.624c0 0.221 0.066 0.402 0.195 0.54 0.13 0.137 0.33 0.235 0.6 0.292 0.133 0.027 0.258 0.05 0.376 0.067 0.12 0.018 0.23 0.04 0.332 0.067a0.667 0.667 0 0 1 0.3 0.15c0.067 0.064 0.1 0.163 0.1 0.297 0 0.157-0.07 0.281-0.21 0.375-0.138 0.094-0.332 0.14-0.582 0.14-0.177 0-0.366-0.034-0.567-0.103a1.684 1.684 0 0 1-0.533-0.296h-0.028v0.505c0.18 0.08 0.358 0.141 0.532 0.182 0.175 0.04 0.373 0.062 0.591 0.062 0.204 0 0.378-0.025 0.522-0.074 0.145-0.049 0.272-0.116 0.38-0.203a0.83 0.83 0 0 0 0.232-0.295 0.797 0.797 0 0 0 0.084-0.35c0-0.217-0.057-0.387-0.172-0.508-0.114-0.121-0.284-0.211-0.51-0.271a5.182 5.182 0 0 0-0.408-0.084 8.61 8.61 0 0 1-0.37-0.069c-0.165-0.038-0.28-0.093-0.345-0.165a0.426 0.426 0 0 1-0.098-0.297c0-0.142 0.066-0.258 0.196-0.348 0.132-0.09 0.306-0.134 0.522-0.134 0.197 0 0.39 0.032 0.577 0.098 0.189 0.064 0.341 0.145 0.457 0.243h0.028v-0.478a2.693 2.693 0 0 0-1.06-0.212m-6.57 0.056v3.035h0.405v-1.207h0.568l1.017 1.207h0.523l-1.141-1.327c0.193-0.075 0.344-0.186 0.454-0.333a0.898 0.898 0 0 0 0.165-0.55 0.765 0.765 0 0 0-0.094-0.399 0.754 0.754 0 0 0-0.256-0.264 0.952 0.952 0 0 0-0.33-0.126 2.394 2.394 0 0 0-0.46-0.036h-0.85m2.904 0v3.035h2v-0.359h-1.597v-1.126h1.597v-0.36h-1.597v-0.831h1.597v-0.36h-2m5.495 0v3.036h2.001v-0.359h-1.597v-1.126h1.597v-0.36h-1.597v-0.831h1.597v-0.36h-2m2.235 0v0.36h1.085v2.676h0.403v-2.676h1.085v-0.36h-2.573m152.66 0.05c-0.475 0-0.831 0.075-1.065 0.226-0.236 0.15-0.353 0.39-0.353 0.716 0 0.324 0.116 0.563 0.348 0.715 0.23 0.153 0.588 0.229 1.072 0.229 0.481 0 0.838-0.076 1.07-0.226 0.232-0.151 0.349-0.39 0.349-0.718 0-0.322-0.115-0.559-0.343-0.711-0.23-0.154-0.589-0.232-1.078-0.232m7.2 0.08c0.188 0 0.349 7e-3 0.483 0.023 0.133 0.014 0.25 0.043 0.349 0.086 0.096 0.042 0.167 0.1 0.215 0.176s0.072 0.17 0.072 0.286c0 0.122-0.025 0.22-0.075 0.294a0.486 0.486 0 0 1-0.218 0.171 1.166 1.166 0 0 1-0.344 0.085c-0.129 0.014-0.288 0.02-0.478 0.02a4.77 4.77 0 0 1-0.478-0.021 1.167 1.167 0 0 1-0.354-0.087 0.484 0.484 0 0 1-0.215-0.177 0.527 0.527 0 0 1-0.072-0.286c0-0.115 0.024-0.21 0.072-0.284a0.478 0.478 0 0 1 0.212-0.175 1.11 1.11 0 0 1 0.347-0.088c0.137-0.016 0.298-0.024 0.484-0.024m-170.09 0.218h0.474c0.109 0 0.204 0.01 0.284 0.025s0.15 0.043 0.208 0.082c0.071 0.047 0.121 0.104 0.151 0.172a0.535 0.535 0 0 1 0.047 0.23 0.764 0.764 0 0 1-0.045 0.282 0.53 0.53 0 0 1-0.377 0.323 1.52 1.52 0 0 1-0.335 0.033h-0.407v-1.147m162.89 0.075c0.188 0 0.349 8e-3 0.483 0.024 0.133 0.014 0.248 0.043 0.347 0.086 0.097 0.042 0.17 0.1 0.217 0.176 0.048 0.076 0.072 0.17 0.072 0.285 0 0.123-0.026 0.22-0.076 0.295a0.486 0.486 0 0 1-0.219 0.171 1.166 1.166 0 0 1-0.344 0.085c-0.128 0.014-0.287 0.02-0.477 0.02-0.174 0-0.333-7e-3 -0.478-0.021a1.156 1.156 0 0 1-0.353-0.087 0.489 0.489 0 0 1-0.217-0.177 0.527 0.527 0 0 1-0.072-0.286c0-0.115 0.024-0.21 0.072-0.284a0.478 0.478 0 0 1 0.213-0.176 1.12 1.12 0 0 1 0.348-0.087c0.137-0.016 0.298-0.024 0.484-0.024m5.837 1.597v0.397l1.11 0.751-1.11 0.734v0.418l1.365-0.929 1.363 0.95v-0.395l-1.124-0.762 1.124-0.742v-0.42l-1.38 0.94-1.348-0.942m-7.2 0.293v0.397l1.108 0.751-1.108 0.734v0.418l1.364-0.929 1.362 0.95v-0.395l-1.122-0.762 1.122-0.742v-0.42l-1.378 0.94-1.348-0.942m-7.507 1.808v0.019a2.34 2.34 0 0 1 0.697 1.188c0.044 0.177 0.066 0.363 0.066 0.56 0 0.204-0.022 0.39-0.066 0.56-0.043 0.17-0.102 0.332-0.176 0.485a2.13 2.13 0 0 1-0.246 0.399c-0.092 0.12-0.183 0.22-0.275 0.303v0.017h0.41c0.212-0.242 0.376-0.508 0.494-0.795 0.117-0.287 0.175-0.61 0.175-0.97s-0.058-0.684-0.175-0.971a2.838 2.838 0 0 0-0.494-0.795h-0.41m-19.454 1e-3a2.831 2.831 0 0 0-0.494 0.794 2.55 2.55 0 0 0-0.176 0.971c0 0.36 0.059 0.684 0.176 0.971 0.117 0.288 0.282 0.552 0.494 0.794h0.411v-0.017a2.246 2.246 0 0 1-0.277-0.303 2.264 2.264 0 0 1-0.246-0.399 2.278 2.278 0 0 1-0.242-1.046c0-0.196 0.022-0.382 0.067-0.56a2.417 2.417 0 0 1 0.42-0.885c0.089-0.114 0.181-0.215 0.278-0.302v-0.018h-0.411m-11.688 0.072c-0.436 0-0.779 0.123-1.029 0.37-0.249 0.247-0.373 0.584-0.373 1.011 0 0.234 0.034 0.436 0.1 0.611 0.068 0.174 0.163 0.32 0.286 0.435 0.122 0.115 0.27 0.2 0.443 0.258a1.827 1.827 0 0 0 1.074 0.013c0.173-0.05 0.333-0.109 0.479-0.176v-1.147h-1.068v0.312h0.716v0.655a1.592 1.592 0 0 1-0.302 0.088 1.745 1.745 0 0 1-0.342 0.035c-0.314 0-0.561-0.095-0.743-0.287s-0.273-0.463-0.273-0.808c0-0.328 0.086-0.587 0.26-0.778 0.174-0.193 0.411-0.289 0.71-0.289a1.53 1.53 0 0 1 0.637 0.129c0.069 0.031 0.138 0.07 0.208 0.116 0.071 0.046 0.126 0.085 0.163 0.114h0.032v-0.422a2.467 2.467 0 0 0-0.514-0.184 2.025 2.025 0 0 0-0.464-0.056m-5.634 0.048v2.672h0.674c0.245 0 0.443-0.018 0.593-0.051a1.181 1.181 0 0 0 0.83-0.623 1.37 1.37 0 0 0 0.16-0.66 1.4 1.4 0 0 0-0.152-0.673 1.196 1.196 0 0 0-0.427-0.454 1.335 1.335 0 0 0-0.39-0.154 2.656 2.656 0 0 0-0.62-0.057h-0.668m2.721 0v0.273h0.35v2.125h-0.35v0.274h1.055v-0.274h-0.35v-2.125h0.35v-0.273h-1.055m4.401 0v0.273h0.349v2.125h-0.349v0.274h1.055v-0.274h-0.35v-2.125h0.35v-0.273h-1.055m1.304 0v0.315h0.955v2.357h0.354v-2.356h0.956v-0.315h-2.265m3.072 0-0.973 2.672h0.36l0.263-0.745h1.155l0.263 0.745h0.378l-0.973-2.672h-0.473m1.851 0v2.672h1.69v-0.316h-1.334v-2.356h-0.356m5.01 0v2.67h0.356v-0.994h0.355c0.191 0 0.35-0.023 0.476-0.069a0.898 0.898 0 0 0 0.326-0.208 0.779 0.779 0 0 0 0.172-0.262 0.855 0.855 0 0 0 0.063-0.33 0.795 0.795 0 0 0-0.084-0.386 0.716 0.716 0 0 0-0.235-0.255 0.9 0.9 0 0 0-0.296-0.125 1.723 1.723 0 0 0-0.408-0.04h-0.725m2.025 0 0.707 2.67h0.391l0.548-2.218 0.563 2.218h0.4l0.694-2.67h-0.349l-0.558 2.242-0.558-2.243h-0.36l-0.552 2.221-0.561-2.22h-0.365m3.825 0v2.67h0.332v-2.301l0.738 1.566h0.211l0.743-1.566v2.3h0.356v-2.67h-0.494l-0.69 1.487-0.712-1.487h-0.484m30.002 0.21-1.193 1.025a0.905 0.905 0 0 0-0.299-0.408 0.803 0.803 0 0 0-0.493-0.148 0.691 0.691 0 0 0-0.36 0.085 0.678 0.678 0 0 0-0.237 0.23 0.853 0.853 0 0 0-0.112 0.297c-0.022 0.11-0.034 0.247-0.034 0.412v0.763h2.728v-0.362h-1.084v-0.511l1.084-0.913v-0.47m-53.857 0.095h0.333c0.166 0 0.308 0.011 0.427 0.035 0.118 0.023 0.23 0.065 0.335 0.125 0.145 0.082 0.254 0.195 0.327 0.338s0.108 0.321 0.108 0.53-0.032 0.382-0.1 0.52a0.8 0.8 0 0 1-0.298 0.336 1.005 1.005 0 0 1-0.352 0.14 2.332 2.332 0 0 1-0.446 0.037h-0.334v-2.061m18.36 0h0.352c0.113 0 0.205 8e-3 0.278 0.025a0.573 0.573 0 0 1 0.197 0.079 0.406 0.406 0 0 1 0.148 0.167 0.556 0.556 0 0 1 0.048 0.24c0 0.08-0.013 0.15-0.037 0.214a0.496 0.496 0 0 1-0.337 0.305c-0.09 0.025-0.206 0.038-0.35 0.038h-0.299v-1.068m-6.988 6e-3 0.467 1.31h-0.938l0.47-1.31m32.558 0.21v2.31h0.322v-0.973h2.404v-0.362h-2.404v-0.974h-0.322m-16.893 0.46v0.287h2.128v-0.287h-2.128m24.86 0.076c0.103 0 0.188 0.013 0.255 0.04a0.476 0.476 0 0 1 0.289 0.34c0.02 0.085 0.03 0.185 0.03 0.3v0.366h-1.03v-0.428c0-0.098 9e-3 -0.181 0.023-0.253a0.499 0.499 0 0 1 0.073-0.188 0.352 0.352 0 0 1 0.154-0.135 0.48 0.48 0 0 1 0.206-0.042m-24.86 0.677v0.287h2.128v-0.287h-2.129m-102.22 2.622c-0.15 0-0.307 0.02-0.468 0.059-0.16 0.04-0.29 0.083-0.386 0.13v0.43h0.02c0.138-0.09 0.279-0.158 0.423-0.201 0.144-0.044 0.277-0.065 0.401-0.065 0.186 0 0.332 0.045 0.435 0.135a0.457 0.457 0 0 1 0.157 0.37 0.87 0.87 0 0 1-0.145 0.481c-0.097 0.148-0.275 0.35-0.536 0.602a7.716 7.716 0 0 1-0.402 0.365l-0.429 0.368v0.426h2.057v-0.349h-1.633l0.433-0.372c0.155-0.134 0.306-0.273 0.451-0.416 0.102-0.099 0.187-0.19 0.258-0.27a1.94 1.94 0 0 0 0.19-0.25 1.13 1.13 0 0 0 0.173-0.606 0.76 0.76 0 0 0-0.266-0.611c-0.177-0.15-0.421-0.226-0.733-0.226m-7.83 8e-3c-0.222 0-0.425 0.034-0.609 0.104a1.284 1.284 0 0 0-0.773 0.803c-0.071 0.197-0.106 0.419-0.106 0.669 0 0.264 0.037 0.496 0.11 0.696a1.235 1.235 0 0 0 0.775 0.784c0.18 0.06 0.38 0.09 0.6 0.09 0.118 0 0.225-8e-3 0.321-0.027a2.261 2.261 0 0 0 0.509-0.156c0.061-0.028 0.129-0.06 0.203-0.092v-0.473h-0.029a1.567 1.567 0 0 1-0.476 0.3c-0.17 0.067-0.352 0.1-0.546 0.1a1.15 1.15 0 0 1-0.405-0.07 0.904 0.904 0 0 1-0.332-0.226 1.118 1.118 0 0 1-0.224-0.375 1.583 1.583 0 0 1-0.087-0.551c0-0.204 0.026-0.383 0.078-0.538a1.07 1.07 0 0 1 0.221-0.386 0.9 0.9 0 0 1 0.328-0.232c0.124-0.05 0.263-0.075 0.416-0.075 0.188 0 0.363 0.032 0.528 0.096 0.164 0.064 0.33 0.166 0.498 0.306h0.03v-0.48a2.597 2.597 0 0 0-0.542-0.207 2.057 2.057 0 0 0-0.487-0.06m2.628 0c-0.33 0-0.603 0.083-0.818 0.246a0.746 0.746 0 0 0-0.322 0.622c0 0.222 0.064 0.402 0.193 0.541 0.13 0.137 0.332 0.234 0.6 0.292 0.134 0.027 0.26 0.05 0.377 0.067 0.12 0.018 0.23 0.04 0.333 0.067a0.667 0.667 0 0 1 0.3 0.15c0.067 0.064 0.1 0.162 0.1 0.297 0 0.156-0.071 0.281-0.211 0.375-0.139 0.094-0.333 0.14-0.583 0.14-0.177 0-0.366-0.034-0.567-0.103a1.677 1.677 0 0 1-0.532-0.296h-0.028v0.507c0.181 0.08 0.358 0.14 0.532 0.181 0.175 0.041 0.373 0.06 0.592 0.06 0.204 0 0.377-0.024 0.521-0.073 0.146-0.049 0.273-0.117 0.381-0.204a0.82 0.82 0 0 0 0.23-0.293 0.805 0.805 0 0 0 0.085-0.351c0-0.218-0.057-0.386-0.171-0.507-0.114-0.12-0.284-0.213-0.51-0.272a5.177 5.177 0 0 0-0.409-0.084 8.592 8.592 0 0 1-0.37-0.069c-0.165-0.038-0.28-0.093-0.345-0.165a0.426 0.426 0 0 1-0.098-0.298c0-0.141 0.065-0.257 0.195-0.347 0.132-0.09 0.307-0.135 0.523-0.135 0.197 0 0.39 0.033 0.577 0.099 0.19 0.063 0.342 0.145 0.457 0.243h0.028v-0.478a2.693 2.693 0 0 0-1.06-0.212m-5.834 0.055v0.311h0.397v2.416h-0.397v0.31h1.199v-0.31h-0.397v-2.416h0.397v-0.31h-1.199m7.665 0v3.036h0.404v-1.132h0.403c0.217 0 0.398-0.026 0.54-0.078 0.143-0.053 0.268-0.131 0.372-0.236a0.883 0.883 0 0 0 0.195-0.297 0.982 0.982 0 0 0 0.072-0.377 0.897 0.897 0 0 0-0.095-0.438 0.81 0.81 0 0 0-0.268-0.288 1.023 1.023 0 0 0-0.336-0.144 1.958 1.958 0 0 0-0.463-0.047h-0.824m0.404 0.348h0.4c0.128 0 0.232 8e-3 0.315 0.027 0.084 0.018 0.16 0.048 0.225 0.09 0.075 0.049 0.13 0.113 0.167 0.19s0.055 0.168 0.055 0.273c0 0.09-0.014 0.17-0.041 0.243a0.57 0.57 0 0 1-0.134 0.206 0.572 0.572 0 0 1-0.249 0.141 1.524 1.524 0 0 1-0.398 0.042h-0.34v-1.212m21.089 3.422v3.4h2.15v-0.402h-1.699v-2.998h-0.451m103.81 13.054c-0.234 0-0.451 0.039-0.65 0.118-0.198 0.08-0.364 0.194-0.498 0.343a1.59 1.59 0 0 0-0.321 0.567 2.35 2.35 0 0 0-0.109 0.744c0 0.282 0.036 0.532 0.109 0.752 0.074 0.219 0.18 0.404 0.318 0.555 0.137 0.15 0.303 0.265 0.498 0.344 0.196 0.08 0.414 0.119 0.653 0.119 0.245 0 0.463-0.038 0.653-0.116 0.192-0.078 0.358-0.193 0.498-0.347 0.136-0.148 0.24-0.332 0.315-0.553 0.076-0.222 0.115-0.474 0.115-0.754s-0.039-0.53-0.113-0.751a1.533 1.533 0 0 0-0.317-0.56 1.357 1.357 0 0 0-0.496-0.34 1.685 1.685 0 0 0-0.655-0.121m-108.04 0.067v0.401h1.214v2.999h0.453v-2.999h1.214v-0.401h-2.881m3.069 0 1.157 1.7-1.185 1.7h0.494l0.95-1.4 0.928 1.4h0.523l-1.172-1.72 1.173-1.68h-0.495l-0.936 1.381-0.917-1.381h-0.52m107.27 4e-3v3.4h0.423v-3.042l1.612 3.042h0.56v-3.4h-0.423v2.776l-1.47-2.776h-0.702m-2.296 0.32c0.343 0 0.614 0.12 0.812 0.36 0.198 0.239 0.297 0.58 0.297 1.021 0 0.446-0.1 0.788-0.301 1.025-0.2 0.236-0.47 0.355-0.808 0.355s-0.606-0.119-0.807-0.355c-0.2-0.237-0.301-0.579-0.301-1.025 0-0.442 0.098-0.782 0.294-1.021 0.198-0.24 0.469-0.36 0.814-0.36m-107.51 6.515v3.402h0.453v-1.352h0.637l1.137 1.352h0.588l-1.281-1.487c0.217-0.084 0.387-0.208 0.51-0.372 0.124-0.166 0.185-0.372 0.185-0.617a0.864 0.864 0 0 0-0.105-0.448 0.842 0.842 0 0 0-0.287-0.294 1.067 1.067 0 0 0-0.371-0.143 2.671 2.671 0 0 0-0.513-0.04h-0.953m2.978 0 1.158 1.702-1.185 1.699h0.492l0.951-1.4 0.927 1.4h0.523l-1.171-1.72 1.174-1.682h-0.496l-0.936 1.383-0.916-1.383h-0.521m-2.526 0.389h0.532c0.122 0 0.228 0.01 0.318 0.027s0.167 0.047 0.233 0.091a0.44 0.44 0 0 1 0.168 0.192 0.606 0.606 0 0 1 0.053 0.26 0.856 0.856 0 0 1-0.05 0.316 0.592 0.592 0 0 1-0.422 0.362 1.7 1.7 0 0 1-0.375 0.036h-0.457v-1.284m106.85 8.413a0.408 0.408 0 0 1-0.063 0.212 0.416 0.416 0 0 1-0.148 0.129 0.702 0.702 0 0 1-0.221 0.063 2.01 2.01 0 0 1-0.275 0.02v0.277h0.63v2.035h-0.63v0.31h1.643v-0.31h-0.62v-2.737h-0.316m-0.754 11.628a0.896 0.896 0 0 0-0.438 0.097 0.81 0.81 0 0 0-0.29 0.267 1.03 1.03 0 0 0-0.142 0.337c-0.032 0.126-0.047 0.28-0.047 0.463v0.823h3.035v-0.404h-1.131v-0.403c0-0.218-0.026-0.398-0.078-0.54a1.02 1.02 0 0 0-0.237-0.371 0.887 0.887 0 0 0-0.297-0.197 0.975 0.975 0 0 0-0.375-0.072m0.01 0.42c0.09 0 0.171 0.015 0.243 0.042a0.57 0.57 0 0 1 0.346 0.384c0.028 0.102 0.044 0.234 0.044 0.397v0.34h-1.215v-0.399c0-0.128 0.01-0.233 0.03-0.316a0.656 0.656 0 0 1 0.09-0.224 0.46 0.46 0 0 1 0.19-0.167 0.629 0.629 0 0 1 0.272-0.056m1.242 2.215c-0.217 0-0.387 0.057-0.508 0.171s-0.211 0.284-0.271 0.51a5.107 5.107 0 0 0-0.084 0.407c-0.027 0.16-0.05 0.284-0.068 0.37-0.038 0.165-0.094 0.281-0.166 0.347a0.426 0.426 0 0 1-0.297 0.096 0.406 0.406 0 0 1-0.348-0.195c-0.09-0.131-0.134-0.305-0.134-0.521 0-0.197 0.033-0.39 0.098-0.577a1.39 1.39 0 0 1 0.243-0.457v-0.03h-0.477a2.695 2.695 0 0 0-0.213 1.06c0 0.331 0.082 0.602 0.245 0.817 0.162 0.215 0.37 0.322 0.624 0.322a0.761 0.761 0 0 0 0.54-0.193c0.138-0.13 0.235-0.33 0.292-0.6 0.027-0.133 0.05-0.258 0.067-0.376 0.018-0.12 0.04-0.23 0.068-0.332a0.66 0.66 0 0 1 0.15-0.3c0.063-0.066 0.162-0.099 0.296-0.099 0.157 0 0.282 0.07 0.375 0.21 0.094 0.138 0.141 0.333 0.141 0.583 0 0.176-0.035 0.365-0.104 0.567a1.67 1.67 0 0 1-0.296 0.53v0.03h0.506a2.607 2.607 0 0 0 0.243-1.124c0-0.203-0.025-0.378-0.073-0.522a1.23 1.23 0 0 0-0.204-0.38 0.826 0.826 0 0 0-0.295-0.23 0.797 0.797 0 0 0-0.35-0.084m-1.958 2.78c-0.1 0.199-0.169 0.38-0.208 0.544-0.04 0.161-0.059 0.323-0.059 0.486 0 0.223 0.035 0.426 0.104 0.61a1.278 1.278 0 0 0 0.801 0.771c0.197 0.071 0.421 0.107 0.671 0.107 0.264 0 0.496-0.038 0.696-0.111a1.241 1.241 0 0 0 0.782-0.775c0.062-0.18 0.093-0.379 0.093-0.6 0-0.116-0.01-0.223-0.03-0.32a2.28 2.28 0 0 0-0.152-0.507 9.19 9.19 0 0 1-0.092-0.205h-0.473v0.03a1.484 1.484 0 0 1 0.4 1.024c0 0.14-0.026 0.275-0.074 0.402a0.9 0.9 0 0 1-0.224 0.333c-0.096 0.09-0.22 0.164-0.373 0.223a1.583 1.583 0 0 1-0.551 0.086c-0.204 0-0.383-0.026-0.538-0.078a1.075 1.075 0 0 1-0.388-0.22 0.896 0.896 0 0 1-0.23-0.328 1.096 1.096 0 0 1-0.076-0.416c0-0.187 0.033-0.362 0.097-0.527 0.063-0.164 0.166-0.33 0.306-0.498v-0.03h-0.483m-0.21 3.034v1.2h0.31v-0.398h2.415v0.398h0.31v-1.2h-0.31v0.399h-2.415v-0.399h-0.31m-49.117 46.445c-0.184 0-0.355 0.03-0.512 0.092a1.033 1.033 0 0 0-0.39 0.27 1.25 1.25 0 0 0-0.253 0.445 1.844 1.844 0 0 0-0.085 0.584c0 0.222 0.028 0.418 0.085 0.59 0.06 0.173 0.143 0.319 0.25 0.437 0.109 0.119 0.239 0.209 0.392 0.271 0.154 0.062 0.325 0.094 0.513 0.094 0.192 0 0.363-0.031 0.512-0.092a1.06 1.06 0 0 0 0.392-0.273c0.106-0.116 0.189-0.26 0.247-0.434 0.06-0.174 0.09-0.373 0.09-0.593s-0.028-0.417-0.087-0.59a1.209 1.209 0 0 0-0.25-0.44 1.057 1.057 0 0 0-0.389-0.266 1.33 1.33 0 0 0-0.515-0.095m45.28 0c-0.185 0-0.355 0.03-0.512 0.092a1.032 1.032 0 0 0-0.39 0.27c-0.11 0.123-0.195 0.271-0.253 0.445a1.842 1.842 0 0 0-0.086 0.584c0 0.221 0.029 0.418 0.086 0.59 0.06 0.173 0.142 0.319 0.25 0.437 0.107 0.118 0.239 0.209 0.392 0.271 0.154 0.062 0.325 0.094 0.513 0.094 0.192 0 0.363-0.032 0.512-0.093a1.06 1.06 0 0 0 0.392-0.272c0.106-0.116 0.189-0.26 0.247-0.434 0.06-0.174 0.09-0.373 0.09-0.593s-0.028-0.417-0.087-0.59a1.207 1.207 0 0 0-0.25-0.44 1.063 1.063 0 0 0-0.39-0.266 1.322 1.322 0 0 0-0.514-0.096m3.054 7e-3v1e-3c-0.435 0-0.778 0.123-1.028 0.371-0.25 0.247-0.374 0.584-0.374 1.01 0 0.234 0.034 0.439 0.101 0.613s0.161 0.318 0.284 0.434c0.122 0.115 0.27 0.2 0.444 0.258 0.174 0.057 0.365 0.085 0.573 0.085 0.161 0 0.329-0.024 0.5-0.074 0.174-0.05 0.334-0.108 0.48-0.175v-1.147h-1.068v0.312h0.715v0.656a1.746 1.746 0 0 1-0.643 0.122c-0.314 0-0.561-0.096-0.743-0.288s-0.274-0.461-0.274-0.807c0-0.328 0.087-0.588 0.261-0.78 0.175-0.192 0.411-0.288 0.71-0.288a1.53 1.53 0 0 1 0.638 0.13c0.068 0.03 0.137 0.07 0.208 0.116 0.07 0.047 0.124 0.084 0.16 0.113h0.033v-0.422a2.457 2.457 0 0 0-0.513-0.184 2.025 2.025 0 0 0-0.464-0.056m-51.639 0.048v2.672h0.355v-0.996h0.355c0.192 0 0.35-0.023 0.475-0.069a0.897 0.897 0 0 0 0.327-0.208 0.782 0.782 0 0 0 0.173-0.262 0.855 0.855 0 0 0 0.063-0.33 0.789 0.789 0 0 0-0.085-0.385 0.712 0.712 0 0 0-0.235-0.255 0.905 0.905 0 0 0-0.296-0.125 1.737 1.737 0 0 0-0.408-0.041h-0.724m4.916 0 0.708 2.672h0.39l0.549-2.218 0.562 2.218h0.4l0.695-2.672h-0.35l-0.556 2.242-0.558-2.242h-0.362l-0.552 2.22-0.561-2.22h-0.365m3.826 0v2.672h1.76v-0.317h-1.405v-0.992h1.405v-0.316h-1.405v-0.732h1.405v-0.315h-1.76m2.325 0v2.672h0.356v-1.062h0.5l0.893 1.062h0.462l-1.005-1.17a0.883 0.883 0 0 0 0.4-0.29 0.791 0.791 0 0 0 0.146-0.486 0.677 0.677 0 0 0-0.083-0.351 0.662 0.662 0 0 0-0.226-0.232 0.83 0.83 0 0 0-0.29-0.111 2.118 2.118 0 0 0-0.404-0.032h-0.749m27.307 0-0.972 2.671h0.36l0.262-0.746h1.156l0.262 0.746h0.378l-0.973-2.67h-0.473m1.852 0v2.67h0.332v-2.39l1.266 2.39h0.441v-2.67h-0.332v2.18l-1.156-2.18h-0.551m3.409 0-0.973 2.67h0.362l0.262-0.746h1.154l0.263 0.746h0.379l-0.973-2.67h-0.474m1.853 0v2.67h1.689v-0.318h-1.335v-2.352h-0.354m8.93 0v0.272h0.35v2.126h-0.35v0.272h1.056v-0.272h-0.35v-2.126h0.35v-0.272h-1.056m1.664 0v2.67h0.33v-2.39l1.268 2.39h0.44v-2.67h-0.332v2.18l-1.155-2.18h-0.551m-52.776 0.247c0.269 0 0.482 0.097 0.637 0.286 0.156 0.188 0.233 0.454 0.233 0.801 0 0.35-0.078 0.62-0.236 0.806a0.787 0.787 0 0 1-0.634 0.277 0.79 0.79 0 0 1-0.634-0.277c-0.158-0.187-0.238-0.455-0.238-0.806 0-0.347 0.077-0.613 0.232-0.801a0.786 0.786 0 0 1 0.64-0.286m45.28 1e-3c0.269 0 0.482 0.094 0.637 0.283 0.156 0.188 0.233 0.454 0.233 0.801 0 0.35-0.08 0.62-0.237 0.806a0.786 0.786 0 0 1-0.633 0.278 0.793 0.793 0 0 1-0.636-0.278c-0.158-0.187-0.236-0.455-0.236-0.806 0-0.347 0.077-0.613 0.232-0.801 0.155-0.19 0.368-0.283 0.64-0.283m-48.232 0.053h0.351c0.113 0 0.206 8e-3 0.279 0.025a0.58 0.58 0 0 1 0.197 0.079 0.402 0.402 0 0 1 0.147 0.167 0.556 0.556 0 0 1 0.048 0.24c0 0.08-0.01 0.15-0.035 0.214a0.5 0.5 0 0 1-0.337 0.305c-0.09 0.025-0.206 0.038-0.35 0.038h-0.3v-1.068m11.067 0h0.417c0.096 0 0.179 8e-3 0.25 0.022a0.48 0.48 0 0 1 0.182 0.072c0.063 0.04 0.107 0.09 0.134 0.15a0.47 0.47 0 0 1 0.04 0.203 0.68 0.68 0 0 1-0.039 0.249 0.468 0.468 0 0 1-0.33 0.284 1.34 1.34 0 0 1-0.295 0.028h-0.36v-1.008m27.18 9e-3 0.47 1.31h-0.94l0.47-1.31m5.263 0 0.468 1.31h-0.939l0.47-1.31" stroke-width="1.061"/><path id="txt_arduino_tm" d="m141.83 51.811h-0.215v-1.394l-0.45 0.948h-0.128l-0.447-0.948v1.394h-0.201v-1.618h0.293l0.432 0.9 0.417-0.9h0.299v1.618m-1.66-1.427h-0.579v1.427h-0.215v-1.427h-0.578v-0.191h1.371v0.191m-7.907 3.357c0 0.544-0.14 0.973-0.418 1.288s-0.653 0.472-1.12 0.472c-0.473 0-0.849-0.157-1.128-0.472-0.277-0.315-0.415-0.744-0.415-1.288s0.138-0.973 0.415-1.288c0.28-0.317 0.655-0.475 1.127-0.475 0.468 0 0.842 0.158 1.12 0.475 0.28 0.315 0.42 0.744 0.42 1.288m-0.58 0c0-0.432-0.085-0.753-0.255-0.962-0.169-0.212-0.404-0.317-0.705-0.317-0.305 0-0.542 0.105-0.711 0.317-0.168 0.209-0.251 0.53-0.251 0.962 0 0.418 0.084 0.736 0.254 0.953 0.17 0.216 0.405 0.323 0.708 0.323 0.299 0 0.533-0.106 0.702-0.32 0.172-0.215 0.258-0.534 0.258-0.956m-3.348 1.668h-0.562v-1.901c0-0.154-9e-3 -0.297-0.027-0.43a0.792 0.792 0 0 0-0.098-0.317 0.446 0.446 0 0 0-0.215-0.186 0.901 0.901 0 0 0-0.365-0.062c-0.153 0-0.314 0.038-0.481 0.113s-0.328 0.173-0.481 0.29v2.493h-0.562v-3.339h0.562v0.37c0.175-0.145 0.356-0.258 0.544-0.34s0.38-0.122 0.576-0.122c0.361 0 0.636 0.108 0.825 0.325s0.284 0.53 0.284 0.939v2.167m-3.873-3.898h-0.634v-0.582h0.634v0.582m-0.036 3.898h-0.562v-3.339h0.562v3.339m-1.674 0h-0.562v-0.37c-0.189 0.149-0.37 0.263-0.544 0.343s-0.364 0.12-0.573 0.12c-0.351 0-0.624-0.107-0.82-0.32-0.195-0.216-0.292-0.53-0.292-0.945v-2.167h0.562v1.901c0 0.17 8e-3 0.315 0.024 0.436a0.79 0.79 0 0 0 0.101 0.308 0.482 0.482 0 0 0 0.21 0.192c0.085 0.04 0.21 0.06 0.373 0.06 0.145 0 0.304-0.038 0.475-0.114 0.174-0.076 0.335-0.173 0.484-0.29v-2.493h0.562v3.339m-3.873 0h-0.562v-0.35c-0.161 0.14-0.33 0.248-0.505 0.326s-0.366 0.116-0.571 0.116c-0.398 0-0.715-0.153-0.95-0.46-0.234-0.307-0.35-0.732-0.35-1.276 0-0.283 0.04-0.535 0.12-0.756 0.081-0.221 0.19-0.41 0.328-0.565a1.381 1.381 0 0 1 1.034-0.466c0.176 0 0.331 0.019 0.467 0.056 0.135 0.036 0.278 0.093 0.427 0.17v-1.446h0.562v4.65m-0.562-0.821v-1.917c-0.151-0.068-0.287-0.115-0.407-0.14s-0.25-0.04-0.391-0.04c-0.315 0-0.56 0.11-0.735 0.33s-0.263 0.53-0.263 0.932c0 0.396 0.067 0.698 0.203 0.905 0.135 0.206 0.353 0.308 0.652 0.308 0.159 0 0.32-0.035 0.484-0.104 0.163-0.072 0.315-0.164 0.457-0.275m-2.681-1.904h-0.03a2.217 2.217 0 0 0-0.523-0.057c-0.173 0-0.34 0.039-0.502 0.117a2.262 2.262 0 0 0-0.466 0.296v2.37h-0.562v-3.338h0.562v0.493c0.223-0.179 0.42-0.305 0.589-0.38 0.17-0.075 0.345-0.113 0.523-0.113 0.097 0 0.168 3e-3 0.212 0.01 0.044 3e-3 0.11 0.012 0.197 0.026v0.577m-2.714 2.726h-0.63l-0.437-1.24h-1.924l-0.437 1.24h-0.6l1.62-4.45h0.788l1.62 4.45m-1.249-1.749-0.78-2.185-0.783 2.185h1.563"/></g><g id="pins"><g id="icsp2"><g id="icsp2_base" fill="#404040"><path id="base_2_56" d="m60.469 27.504h3.931l1.51-1.511v-11.206l-1.51-1.512h-3.931l-1.511 1.512v11.206z"/><path id="base_2_34" d="m66.14 22.059v3.934l1.509 1.511h3.932l1.513-1.511v-11.206l-1.513-1.512h-3.932l-1.509 1.512v3.932z"/><path id="base_2_12" d="m80.271 25.993v-11.206l-1.509-1.512h-3.933l-1.512 1.512v11.206l1.512 1.511h3.933z"/></g><g id="pin_icsp2_6"><path id="center_2_6" d="m61.7 23.4h1.183v1.182h-1.183z" fill="#8c8663"/><path id="border_2_6" d="m61.114 25.095 0.56-0.558h1.181l0.558 0.558h-2.299m2.299 0-0.558-0.558v-1.181l0.558-0.558v2.297m-0.558-1.739h-1.181l-0.56-0.558h2.299l-0.558 0.558m-1.181 1.181v-1.181l-0.56-0.558v2.297l0.56-0.558" fill="#9a916c"/></g><g id="pin_icsp2_5"><path id="center_2_5" d="m61.7 16.15h1.183v1.184h-1.183z" fill="#8c8663"/><path id="border_2_5" d="m62.855 17.337 0.558 0.559h-2.299l0.56-0.559h1.181m0-1.181 0.558-0.558v2.298l-0.558-0.559v-1.181m-1.741-0.558h2.299l-0.558 0.558h-1.181l-0.56-0.558v2.298l0.56-0.559v-1.181l-0.56-0.558" fill="#9a916c"/></g><g id="pin_icsp2_4"><path id="center_2_4" d="m68.9 23.4h1.184v1.182h-1.184z" fill="#8c8663"/><path id="border_2_4" d="m68.314 25.095 0.557-0.558h1.183l0.557 0.558h-2.297m2.297 0-0.557-0.558v-1.181l0.557-0.558v2.297m-0.557-1.739h-1.183l-0.557-0.558h2.297l-0.557 0.558m-1.183 1.181v-1.181l-0.557-0.558v2.297l0.557-0.558" fill="#9a916c"/></g><g id="pin_icsp2_3"><path id="center_2_3" d="m68.9 16.15h1.184v1.184h-1.184z" fill="#8c8663"/><path id="border_2_3" d="m70.054 17.337 0.557 0.559h-2.297l0.557-0.559h1.183m0-1.181 0.557-0.558v2.298l-0.557-0.559v-1.181m-1.74-0.558h2.297l-0.557 0.558h-1.183l-0.557-0.558v2.298l0.557-0.559v-1.181l-0.557-0.558" fill="#9a916c"/></g><g id="pin_icsp2_2"><path id="center_2_2" d="m76.1 23.4h1.185v1.182h-1.185z" fill="#8c8663"/><path id="border_2_2" d="m75.512 25.095 0.558-0.558h1.185l0.555 0.558h-2.298m2.298 0-0.555-0.558v-1.181l0.555-0.558v2.297m-0.555-1.739h-1.185l-0.558-0.558h2.298l-0.555 0.558m-1.185 1.181v-1.181l-0.558-0.558v2.297l0.558-0.558" fill="#9a916c"/></g><g id="pin_icsp2_1"><path id="center_2_1" d="m76.1 16.15h1.185v1.184h-1.185z" fill="#8c8663"/><path id="border_2_1" d="m77.255 17.337 0.555 0.559h-2.298l0.558-0.559h1.185m0-1.181 0.555-0.558v2.298l-0.555-0.559v-1.181m-1.743-0.558h2.298l-0.555 0.558h-1.185l-0.558-0.558v2.298l0.558-0.559v-1.181l-0.558-0.558" fill="#9a916c"/></g></g><g id="icsp1"><g id="icsp1_base" fill="#404040"><path id="base_1_56" d="m196.13 82.839h11.21l1.51-1.507v-3.935l-1.51-1.512h-11.21l-1.51 1.512v3.935z"/><path id="base_1_34" d="m203.41 75.663h3.93l1.51-1.514v-3.932l-1.51-1.509h-11.21l-1.51 1.509v3.932l1.51 1.514h3.94z"/><path id="base_1_12" d="m207.34 61.526h-11.21l-1.51 1.512v3.93l1.51 1.51h11.21l1.51-1.51v-3.93z"/></g><g id="pin_icsp1_6"><path id="center_1_6" d="m204.8 78.6h1.184v1.185h-1.184z" fill="#8c8663"/><path id="border_1_6" d="m204.78 79.82-0.558 0.555v-2.297l0.558 0.557v1.185m1.18 0 0.56 0.555h-2.298l0.558-0.555h1.18m0.56-1.742v2.297l-0.56-0.555v-1.185l0.56-0.557h-2.298l0.558 0.557h1.18l0.56-0.557" fill="#9a916c"/></g><g id="pin_icsp1_5"><path id="center_1_5" d="m197.6 78.7h1.184v1.187h-1.184z" fill="#8c8663"/><path id="border_1_5" d="m197.59 78.635v1.185l-0.557 0.555v-2.297l0.557 0.557m0 1.185h1.18l0.559 0.555h-2.296l0.557-0.555m1.18-1.185 0.559-0.557v2.297l-0.559-0.555v-1.185l0.559-0.557h-2.296l0.557 0.557h1.18" fill="#9a916c"/></g><g id="pin_icsp1_4"><path id="center_1_4" d="m204.75 71.5h1.185v1.184h-1.185z" fill="#8c8663"/><path id="border_1_4" d="m204.78 72.619-0.558 0.556v-2.297l0.558 0.557v1.184m1.18 0 0.56 0.556h-2.298l0.558-0.556h1.18m0.56-1.741v2.297l-0.56-0.556v-1.184l0.56-0.557h-2.298l0.558 0.557h1.18l0.56-0.557" fill="#9a916c"/></g><g id="pin_icsp1_3"><path id="center_1_3" d="m197.6 71.5h1.185v1.184h-1.185z" fill="#8c8663"/><path id="border_1_3" d="m197.03 73.175v-2.297l0.557 0.557v1.184l-0.557 0.556m2.295 0h-2.295l0.557-0.556h1.18l0.558 0.556-0.558-0.556v-1.184l0.558-0.557v2.297m-2.295-2.297 0.557 0.557h1.18l0.558-0.557h-2.295" fill="#9a916c"/></g><g id="pin_icsp1_2"><path id="center_1_2" d="m204.8 64.3h1.185v1.183h-1.185z" fill="#8c8663"/><path id="border_1_2" d="m204.78 65.419-0.558 0.558v-2.297l0.558 0.559v1.18m1.18 0 0.56 0.558h-2.298l0.558-0.558h1.18m0.56-1.739v2.297l-0.56-0.558v-1.18l0.56-0.559h-2.298l0.558 0.559h1.18l0.56-0.559" fill="#9a916c"/></g><g id="pin_icsp1_1"><path id="center_1_1" d="m197.6 64.3h1.185v1.183h-1.185z" fill="#8c8663"/><path id="border_1_1" d="m197.03 65.977v-2.297l0.557 0.559v1.18l-0.557 0.558m2.295 0h-2.295l0.557-0.558h1.18l0.558 0.558-0.558-0.558v-1.18l0.558-0.559v2.297m-2.295-2.297 0.557 0.559h1.18l0.558-0.559h-2.295" fill="#9a916c"/></g></g><g id="analogPins"><path id="base_A0_A5" d="m158.18 140.63h43.199v7.199h-43.199z" fill="#404040"/><path id="hole_A0" d="m160.39 142.84h2.781v2.783h-2.781z"/><path id="hole_A0_border" d="m159.36 141.81v4.832h1e-3l1.024-1.025v-2.783h2.786l1.023-1.024h-4.834m4.834 0-1.022 1.028v2.782l1.022 1.023v-4.833m0 4.833-1.025-1.023h-2.784l-1.023 1.023h4.832" fill="#2a2a29" stroke-width="1.342"/><path id="hole_A1" d="m167.59 142.84h2.781v2.783h-2.781z"/><path id="hole_A1_border" d="m166.56 141.81v4.832l1.028-1.025v-2.783l-1.028-1.024m1.028 1.024h2.782l1.024-1.024h-4.831l1.025 1.024m3.806-1.024-1.024 1.028v2.782h-2.782l-1.025 1.023h4.831v-4.833" fill="#2a2a29" stroke-width="1.342"/><path id="hole_A2" d="m174.79 142.84h2.781v2.783h-2.781z"/><path id="hole_A2_border" d="m173.76 141.81v4.832h1e-3l1.024-1.025v-2.783h2.783l1.025-1.024h-4.833m4.834 0-1.025 1.028v2.782h-2.784l-1.023 1.023h4.832v-4.833" fill="#2a2a29" stroke-width="1.342"/><path id="hole_A3" d="m181.99 142.84h2.781v2.783h-2.781z"/><path id="hole_A3_border" d="m180.96 141.81v4.832l1.028-1.025v-2.783l-1.028-1.024m1.028 1.024h2.782l1.027-1.024h-4.833l1.024 1.024m3.809-1.024-1.027 1.028v2.782l1.027 1.023v-4.833m-1.027 3.81h-2.781l-1.024 1.023h4.83l-1.024-1.023" fill="#2a2a29" stroke-width="1.342"/><path id="hole_A4" d="m189.19 142.84h2.779v2.783h-2.779z"/><path id="hole_A4_border" d="m188.16 141.81v4.832l1.025-1.025v-2.783l-1.025-1.024m1.025 1.024h2.785l1.024-1.024h-4.831l1.022 1.024m3.809-1.024-1.024 1.028v2.782h-2.785l-1.022 1.023h4.83v-4.833" fill="#2a2a29" stroke-width="1.342"/><path id="hole_A5" d="m196.39 142.84h2.781v2.783h-2.781z"/><path id="hole_A5_border" d="m195.36 141.81v4.832h1e-3l1.024-1.025v-2.783h2.785l1.024-1.024h-4.834m4.834 0-1.024 1.028v2.782h-2.784l-1.024 1.023h4.833v-4.833" fill="#2a2a29" stroke-width="1.342"/></g><g id="powerPins"><path id="base_power_pins" d="m93.375 140.63h57.601v7.199h-57.601z" fill="#404040"/><path id="hole_na" d="m95.585 142.84h2.781v2.783h-2.781z"/><path id="hole_na_border" d="m94.558 141.81v4.832h2e-3l1.023-1.025v-2.783h2.784l1.025-1.024h-4.834m4.834 0-1.025 1.028v2.782h-2.784l-1.024 1.023h4.833v-4.833" fill="#2a2a29" stroke-width="1.342"/><path id="hole_ioref" d="m102.79 142.84h2.781v2.783h-2.781z"/><path id="hole_ioref_border" d="m101.76 141.81v4.832h1e-3l1.024-1.025v-2.783h2.783l1.027-1.024h-4.835m4.835 0-1.026 1.028v2.782h-2.784l-1.024 1.023h4.834v-4.833" fill="#2a2a29" stroke-width="1.342"/><path id="hole_reset_2" d="m109.99 142.84h2.78v2.783h-2.78z"/><path id="hole_reset_2_border" d="m108.96 141.81v4.832h1e-3l1.024-1.025v-2.783h2.785l1.024-1.024h-4.834m4.834 0-1.024 1.028v2.782l1.023 1.023v-4.833m-1e-3 4.833-1.026-1.023h-2.782l-1.023 1.023h4.83" fill="#2a2a29" stroke-width="1.342"/><path id="hole_3v3" d="m117.19 142.84h2.781v2.783h-2.781z"/><path id="hole_3v3_border" d="m116.16 141.81v4.832l1.027-1.025v-2.783l-1.027-1.024m1.027 1.024h2.786l1.021-1.024h-4.831l1.024 1.024m3.807-1.024-1.021 1.028v2.782l1.02 1.023v-4.833m0 4.833-1.023-1.023h-2.783l-1.024 1.023h4.831" fill="#2a2a29" stroke-width="1.342"/><path id="hole_5v" d="m124.39 142.84h2.78v2.783h-2.78z"/><path id="hole_5v_border" d="m123.36 141.81v4.832l1.028-1.025v-2.783l-1.028-1.024m1.028 1.024h2.782l1.024-1.024h-4.831l1.025 1.024m3.806-1.024-1.024 1.028v2.782h-2.782l-1.025 1.023h4.831v-4.833" fill="#2a2a29" stroke-width="1.342"/><path id="hole_gnd_2" d="m131.59 142.84h2.78v2.783h-2.78z"/><path id="hole_gnd_2_border" d="m130.56 141.81v4.832h1e-3l1.024-1.025v-2.783h2.782l1.027-1.024h-4.834m4.834 0-1.027 1.028v2.782h-2.782l-1.023 1.023h4.832v-4.833" fill="#2a2a29" stroke-width="1.342"/><path id="hole_gnd_1" d="m138.79 142.84h2.78v2.783h-2.78z"/><path id="hole_gnd_1_border" d="m137.76 141.81v4.832h2e-3l1.024-1.025v-2.783h2.782l1.028-1.024h-4.836m4.835 0-1.028 1.028v2.782h-2.782l-1.024 1.023h4.835v-4.833" fill="#2a2a29" stroke-width="1.342"/><path id="hole_vin" d="m145.99 142.84h2.78v2.783h-2.78z"/><path id="hole_vin_border" d="m144.96 141.81v4.832h1e-3l1.024-1.025v-2.783h2.785l1.023-1.024h-4.833m4.834 0-1.024 1.028v2.782l1.023 1.023h2e-3v-4.833m-1e-3 4.833-1.026-1.023h-2.782l-1.023 1.023h4.83" fill="#2a2a29" stroke-width="1.342"/></g><circle id="pin_white" cx="80.612" cy="12.96" r=".72" fill="#0f0" stroke="#fff" stroke-width=".967"/><g id="digitalPins_8_17"><path id="base_8_17" d="m67.394 3.829h72v7.199h-72z" fill="#404040"/><path id="hole_17_scl" d="m69.605 6.038h2.779v2.782h-2.779z"/><path id="hole_17_scl_border" d="m68.579 5.013v4.833h4.834v-4.833l-1.027 1.029v2.78h-2.783v-2.783h2.783l1.027-1.026h-4.834" fill="#2a2a29" stroke-width="1.342"/><path id="hole_16_sda" d="m76.806 6.038h2.781v2.782h-2.781z"/><path id="hole_16_sda_border" d="m75.777 5.013v4.833h4.834l-1.028-1.024h-2.78v-2.783h2.783l1.025-1.026h-4.834m4.834 0-1.025 1.029v2.78l1.025 1.024v-4.833" fill="#2a2a29" stroke-width="1.342"/><path id="hole_15_aref" d="m84.005 6.038h2.779v2.782h-2.779z"/><path id="hole_15_aref_border" d="m82.978 5.013v4.833h4.834v-4.833l-1.025 1.029v2.78h-2.787v-2.783h2.787l1.025-1.026h-4.834" fill="#2a2a29" stroke-width="1.342"/><path id="hole_14_gnd_3" d="m91.206 6.038h2.781v2.782h-2.781z"/><path id="hole_14_gnd_3_border" d="m90.178 5.013v4.833h4.834v-4.833l-1.024 1.029v2.78h-2.783v-2.783h2.783l1.024-1.026h-4.834" fill="#2a2a29" stroke-width="1.342"/><path id="hole_13" d="m98.406 6.038h2.779v2.782h-2.779z"/><path id="hole_13_border" d="m97.376 5.013v4.833h4.833l-1.024-1.024h-2.78v-2.783h2.783l1.022-1.026h-4.834m4.834 0-1.022 1.029v2.78l1.02 1.024h3e-3v-4.833" fill="#2a2a29" stroke-width="1.342"/><path id="hole_12" d="m105.61 6.038h2.779v2.782h-2.779z"/><path id="hole_12_border" d="m104.58 5.013v4.833h4.835l-1.03-1.024h-2.78v-2.783h2.783l1.027-1.026h-4.835m4.834 0-1.027 1.029v2.78l1.027 1.024v-4.833" fill="#2a2a29" stroke-width="1.342"/><path id="hole_11" d="m112.8 6.038h2.78v2.782h-2.78z"/><path id="hole_11_border" d="m111.78 5.013v4.833l1.024-1.024v-2.783l-1.024-1.026m1.024 1.026h2.782l1.028-1.026h-4.83l1.02 1.026m3.81-1.026-1.029 1.029v2.78h-2.78l-1.02 1.024h4.83v-4.833" fill="#2a2a29" stroke-width="1.342"/><path id="hole_10" d="m120 6.038h2.779v2.782h-2.779z"/><path id="hole_10_border" d="m118.98 5.013v4.833h4.833v-4.833l-1.022 1.029v2.78h-2.788v-2.783h2.788l1.023-1.026h-4.834" fill="#2a2a29" stroke-width="1.342"/><path id="hole_9" d="m127.21 6.038h2.78v2.782h-2.78z"/><path id="hole_9_border" d="m126.18 5.013v4.833h4.83l-1.02-1.024h-2.783v-2.783h2.785l1.023-1.026h-4.835m4.834 0-1.022 1.029v2.78l1.022 1.024v-4.833" fill="#2a2a29" stroke-width="1.342"/><path id="hole_8" d="m134.41 6.038h2.778v2.782h-2.778z"/><path id="hole_8_border" d="m133.37 5.013v4.833l1.03-1.026v-2.78l-1.03-1.026m1.03 1.026h2.78l1.024-1.026h-4.831l1.027 1.026m3.804-1.026-1.024 1.029v2.78h-2.78l-1.027 1.024h4.83v-4.834" fill="#2a2a29" stroke-width="1.342"/></g><g id="digitalPins_0_7"><path id="base_0_7" d="m143.5 3.8h57.6v7.199h-57.6z" fill="#404040"/><path id="hole_7" d="m146 6h2.78v2.782h-2.78z"/><path id="hole_7_border" d="m144.96 5.015v4.83l1.025-1.025v-2.78l-1.025-1.024m1.025 1.024h2.782l1.027-1.024h-4.831l1.023 1.024m3.808-1.024-1.027 1.027v2.781h-2.781l-1.023 1.023h4.831v-4.832" fill="#2a2a29" stroke-width="1.342"/><path id="hole_6" d="m153.1 6h2.779v2.782h-2.779z"/><path id="hole_6_border" d="m152.16 5.015v4.83l1.027-1.025v-2.78l-1.027-1.024m1.027 1.024h2.784l1.026-1.024h-4.834l1.024 1.024m3.81-1.024-1.026 1.027v2.781l1.026 1.023v-4.832m-1.026 3.808h-2.784l-1.024 1.023h4.831l-1.022-1.023" fill="#2a2a29" stroke-width="1.342"/><path id="hole_5" d="m160.4 6h2.781v2.782h-2.781z"/><path id="hole_5_border" d="m159.36 5.015v4.83l1.027-1.025v-2.78l-1.027-1.024m1.027 1.024h2.783l1.024-1.024h-4.831l1.024 1.024m3.807-1.024-1.024 1.027v2.781l1.024 1.023v-4.832m-1.024 3.808h-2.784l-1.023 1.023h4.828l-1.021-1.023" fill="#2a2a29" stroke-width="1.342"/><path id="hole_4" d="m167.6 6h2.78v2.782h-2.78z"/><path id="hole_4_border" d="m166.56 5.015v4.83h1e-3l1.028-1.025v-2.78h2.782l1.023-1.024h-4.834m4.834 0-1.022 1.027v2.781h-2.782l-1.028 1.023h4.833v-4.832" fill="#2a2a29" stroke-width="1.342"/><path id="hole_3" d="m175 6h2.781v2.782h-2.781z"/><path id="hole_3_border" d="m173.76 5.015v4.83l1.025-1.025v-2.78l-1.025-1.024m1.025 1.024h2.784l1.025-1.024h-4.831l1.022 1.024m3.809-1.024-1.025 1.027v2.781c0.342 0.34 0.682 0.684 1.025 1.023v-4.832m-1e-3 4.83c-0.342-0.34-0.685-0.68-1.027-1.022h-2.78l-1.023 1.023h4.83" fill="#2a2a29" stroke-width="1.342"/><path id="hole_2" d="m182 6h2.78v2.782h-2.78z"/><path id="hole_2_border" d="m180.96 5.015v4.83l1.025-1.025v-2.78l-1.025-1.024m1.025 1.024h2.782l1.027-1.024h-4.831l1.022 1.024m3.809-1.024-1.027 1.027v2.781h-2.782l-1.022 1.023h4.831v-4.832" fill="#2a2a29" stroke-width="1.342"/><path id="hole_1_tx0" d="m189.3 6h2.779v2.782h-2.779z"/><path id="hole_1_tx0_border" d="m188.16 5.015v4.83l1.027-1.025v-2.78l-1.027-1.024m1.027 1.024h2.784l1.026-1.024h-4.834l1.024 1.024m3.81-1.024-1.026 1.027v2.781l1.026 1.023v-4.832m-1.026 3.808h-2.784l-1.024 1.023h4.831l-1.022-1.023" fill="#2a2a29" stroke-width="1.342"/><path id="hole_0_rx0" d="m196.5 6h2.781v2.782h-2.781z"/><path id="hole_0_rx0_border" d="m195.36 5.015v4.83l1.027-1.025v-2.78l-1.027-1.024m1.027 1.024h2.783l1.024-1.024h-4.831l1.024 1.024m3.807-1.024-1.024 1.027v2.781l1.024 1.023v-4.832m-1.024 3.808h-2.783l-1.024 1.023h4.829l-1.021-1.023" fill="#2a2a29" stroke-width="1.342"/></g></g></g></g></svg>
